<svg width="27" height="26" viewBox="0 0 27 26" fill="none" xmlns="http://www.w3.org/2000/svg">
<path fill-rule="evenodd" clip-rule="evenodd" d="M9.88958 19.7897L10.366 19.9277C11.3641 20.2167 12.4189 20.3662 13.4998 20.3662C18.8076 20.3662 23.0332 16.7745 23.0332 12.4581C23.0332 8.14165 18.8076 4.54997 13.4998 4.54997C8.19212 4.54997 3.9665 8.14165 3.9665 12.4581C3.9665 14.707 5.11151 16.8196 7.10881 18.3203L7.70537 18.7685L7.45071 20.9592L9.88958 19.7897ZM13.4998 21.6662C12.2768 21.6662 11.101 21.4939 10.0044 21.1764L6.77288 22.7259C6.68064 22.7701 6.57775 22.7873 6.47614 22.7755C6.17898 22.741 5.96609 22.4721 6.00063 22.1749L6.32791 19.3595C4.08242 17.6724 2.6665 15.2058 2.6665 12.4581C2.6665 7.3726 7.51675 3.25 13.4998 3.25C19.4829 3.25 24.3332 7.3726 24.3332 12.4581C24.3332 17.5436 19.4829 21.6662 13.4998 21.6662Z" fill="black"/>
</svg>
