<svg width="20" height="20" viewBox="0 0 20 20" fill="none" xmlns="http://www.w3.org/2000/svg">
<path d="M1.875 1.875C1.875 1.70924 1.94085 1.55027 2.05806 1.43306C2.17527 1.31585 2.33424 1.25 2.5 1.25H17.5C17.6658 1.25 17.8247 1.31585 17.9419 1.43306C18.0592 1.55027 18.125 1.70924 18.125 1.875V4.375C18.125 4.52913 18.068 4.67782 17.965 4.7925L12.5 10.865V16.875C12.4999 17.0061 12.4586 17.1339 12.3818 17.2402C12.3051 17.3466 12.1969 17.4261 12.0725 17.4675L8.3225 18.7175C8.22859 18.7488 8.1286 18.7573 8.03075 18.7424C7.9329 18.7275 7.84 18.6895 7.75969 18.6316C7.67938 18.5738 7.61395 18.4977 7.56881 18.4096C7.52366 18.3215 7.50008 18.224 7.5 18.125V10.865L2.035 4.7925C1.93201 4.67782 1.87503 4.52913 1.875 4.375V1.875ZM3.125 2.5V4.135L8.59 10.2075C8.69299 10.3222 8.74997 10.4709 8.75 10.625V17.2575L11.25 16.425V10.625C11.25 10.4709 11.307 10.3222 11.41 10.2075L16.875 4.135V2.5H3.125Z" fill="black"/>
</svg>
