<svg width="24" height="24" viewBox="0 0 24 24" fill="none" xmlns="http://www.w3.org/2000/svg">
<path d="M18.84 3C20.033 3 21 3.967 21 5.16V18.84C21 20.033 20.033 21 18.84 21H5.16C3.967 21 3 20.033 3 18.84V5.16C3 3.967 3.967 3 5.16 3H18.84ZM19.0572 4.2H4.9428C4.76079 4.20003 4.58513 4.26686 4.44913 4.38782C4.31313 4.50877 4.22626 4.67544 4.205 4.8562L4.2 4.9428V19.0572C4.20003 19.2392 4.26686 19.4149 4.38782 19.5509C4.50877 19.6869 4.67544 19.7737 4.8562 19.795L4.9428 19.8H19.0572C19.2392 19.8 19.4149 19.7331 19.5509 19.6122C19.6869 19.4912 19.7737 19.3246 19.795 19.1438L19.8 19.0572V4.9428C19.8 4.76079 19.7331 4.58513 19.6122 4.44913C19.4912 4.31313 19.3246 4.22626 19.1438 4.205L19.0572 4.2Z" fill="#1E63FF"/>
<path fill-rule="evenodd" clip-rule="evenodd" d="M19.0572 4.2H4.9428C4.76079 4.20003 4.58513 4.26686 4.44913 4.38782C4.31313 4.50877 4.22626 4.67544 4.205 4.8562L4.2 4.9428V19.0572C4.20003 19.2392 4.26686 19.4149 4.38782 19.5509C4.50877 19.6869 4.67544 19.7737 4.8562 19.795L4.9428 19.8H19.0572C19.2392 19.8 19.4149 19.7331 19.5509 19.6122C19.6869 19.4912 19.7737 19.3246 19.795 19.1438L19.8 19.0572V4.9428C19.8 4.76079 19.7331 4.58513 19.6122 4.44913C19.4912 4.31313 19.3246 4.22626 19.1438 4.205L19.0572 4.2ZM8.43999 13.08C8.43999 12.6 8.19999 12.36 7.71999 12.36C7.23999 12.36 6.99999 12.6 6.99999 13.08V15.96C6.99999 16.44 7.23999 16.68 7.71999 16.68C8.19999 16.68 8.43999 16.44 8.43999 15.96V13.08ZM12.76 8.75998C12.76 8.27998 12.52 8.03998 12.04 8.03998C11.56 8.03998 11.32 8.27998 11.32 8.75998V15.96C11.32 16.44 11.56 16.68 12.04 16.68C12.52 16.68 12.76 16.44 12.76 15.96V8.75998ZM17.08 10.92C17.08 10.44 16.84 10.2 16.36 10.2C15.88 10.2 15.64 10.44 15.64 10.92V15.96C15.64 16.44 15.88 16.68 16.36 16.68C16.84 16.68 17.08 16.44 17.08 15.96V10.92Z" fill="#1E63FF"/>
</svg>
