<svg width="27" height="26" viewBox="0 0 27 26" fill="none" xmlns="http://www.w3.org/2000/svg">
<path d="M20.91 3.25C22.2024 3.25 23.25 4.29758 23.25 5.59V20.41C23.25 21.7024 22.2024 22.75 20.91 22.75H6.09C4.79758 22.75 3.75 21.7024 3.75 20.41V5.59C3.75 4.29758 4.79758 3.25 6.09 3.25H20.91ZM21.1453 4.55H5.8547C5.65753 4.55003 5.46722 4.62243 5.31989 4.75347C5.17256 4.8845 5.07845 5.06506 5.05542 5.26088L5.05 5.3547V20.6453C5.05003 20.8425 5.12243 21.0328 5.25347 21.1801C5.3845 21.3274 5.56506 21.4215 5.76088 21.4446L5.8547 21.45H21.1453C21.3425 21.45 21.5328 21.3776 21.6801 21.2465C21.8274 21.1155 21.9215 20.9349 21.9446 20.7391L21.95 20.6453V5.3547C21.95 5.15753 21.8776 4.96722 21.7465 4.81989C21.6155 4.67256 21.4349 4.57845 21.2391 4.55542L21.1453 4.55Z" fill="black"/>
<path d="M8.86332 13.39C9.38332 13.39 9.64332 13.65 9.64332 14.17V17.29C9.64332 17.81 9.38332 18.07 8.86332 18.07C8.34332 18.07 8.08332 17.81 8.08332 17.29V14.17C8.08332 13.65 8.34332 13.39 8.86332 13.39Z" fill="black"/>
<path d="M13.5433 8.70998C14.0633 8.70998 14.3233 8.96998 14.3233 9.48998V17.29C14.3233 17.81 14.0633 18.07 13.5433 18.07C13.0233 18.07 12.7633 17.81 12.7633 17.29V9.48998C12.7633 8.96998 13.0233 8.70998 13.5433 8.70998Z" fill="black"/>
<path d="M18.2233 11.05C18.7433 11.05 19.0033 11.31 19.0033 11.83V17.29C19.0033 17.81 18.7433 18.07 18.2233 18.07C17.7033 18.07 17.4433 17.81 17.4433 17.29V11.83C17.4433 11.31 17.7033 11.05 18.2233 11.05Z" fill="black"/>
</svg>
