<svg width="27" height="26" viewBox="0 0 27 26" fill="none" xmlns="http://www.w3.org/2000/svg">
<path d="M20.7363 4.77344H18.9844V3.85938C18.9844 3.52285 18.7116 3.25 18.375 3.25C18.0384 3.25 17.7656 3.52285 17.7656 3.85938V4.77344H9.23438V3.85938C9.23438 3.52285 8.96157 3.25 8.625 3.25C8.28843 3.25 8.01562 3.52285 8.01562 3.85938V4.77344H6.26367C4.87761 4.77344 3.75 5.90105 3.75 7.28711V20.2363C3.75 21.6224 4.87761 22.75 6.26367 22.75H20.7363C22.1224 22.75 23.25 21.6224 23.25 20.2363V7.28711C23.25 5.90105 22.1224 4.77344 20.7363 4.77344ZM6.26367 5.99219H8.01562V6.60156C8.01562 6.93809 8.28843 7.21094 8.625 7.21094C8.96157 7.21094 9.23438 6.93809 9.23438 6.60156V5.99219H17.7656V6.60156C17.7656 6.93809 18.0384 7.21094 18.375 7.21094C18.7116 7.21094 18.9844 6.93809 18.9844 6.60156V5.99219H20.7363C21.4504 5.99219 22.0312 6.57307 22.0312 7.28711V8.73438H4.96875V7.28711C4.96875 6.57307 5.54964 5.99219 6.26367 5.99219ZM20.7363 21.5312H6.26367C5.54964 21.5312 4.96875 20.9504 4.96875 20.2363V9.95312H22.0312V20.2363C22.0312 20.9504 21.4504 21.5312 20.7363 21.5312Z" fill="black"/>
</svg>
