<svg width="27" height="26" viewBox="0 0 27 26" fill="none" xmlns="http://www.w3.org/2000/svg">
<path fill-rule="evenodd" clip-rule="evenodd" d="M19.9998 21.6667C19.9998 22.265 19.5148 22.75 18.9165 22.75H8.08317C7.48486 22.75 6.99984 22.265 6.99984 21.6667V15.1667H4.19857C3.91125 15.1667 3.6357 15.0525 3.43254 14.8494C3.00947 14.4263 3.00947 13.7404 3.43254 13.3173L12.7338 4.01603C13.1569 3.59296 13.8428 3.59296 14.2659 4.01603L23.5671 13.3173C23.7703 13.5205 23.8844 13.796 23.8844 14.0833C23.8844 14.6816 23.3994 15.1667 22.8011 15.1667H19.9998V21.6667ZM13.4998 5.08848L4.72165 13.8667H8.29984V21.45H12.4165V18.4167H14.5832V21.45H18.6998V13.8667H22.278L13.4998 5.08848Z" fill="black"/>
</svg>
