<svg width="27" height="26" viewBox="0 0 27 26" fill="none" xmlns="http://www.w3.org/2000/svg">
<path d="M20.7363 4.77344H18.9844V3.85938C18.9844 3.52285 18.7116 3.25 18.375 3.25C18.0384 3.25 17.7656 3.52285 17.7656 3.85938V4.77344H9.23438V3.85938C9.23438 3.52285 8.96157 3.25 8.625 3.25C8.28843 3.25 8.01562 3.52285 8.01562 3.85938V4.77344H6.26367C4.87761 4.77344 3.75 5.90105 3.75 7.28711V20.2363C3.75 21.6224 4.87761 22.75 6.26367 22.75H20.7363C22.1224 22.75 23.25 21.6224 23.25 20.2363V7.28711C23.25 5.90105 22.1224 4.77344 20.7363 4.77344ZM22.0312 20.2363C22.0312 20.9515 21.4515 21.5312 20.7363 21.5312H6.26367C5.54849 21.5312 4.96875 20.9515 4.96875 20.2363V10.1436C4.96875 10.0384 5.05402 9.95312 5.15918 9.95312H21.8408C21.946 9.95312 22.0312 10.0384 22.0312 10.1436V20.2363Z" fill="#1E63FF"/>
</svg>
