<svg width="53" height="36" viewBox="0 0 53 36" fill="none" xmlns="http://www.w3.org/2000/svg">
<g clip-path="url(#clip0_1353_926)">
<g clip-path="url(#clip1_1353_926)">
<path d="M12.9998 12.7036V6.20361L7.4979 2.95361L1.99976 6.20361V12.7036L7.4979 15.9536L12.9998 12.7036Z" fill="#1E63FF"/>
<path d="M49.0381 11.9949V7.13026L44.8022 4.6958L40.562 7.13026V11.9949L44.8022 14.4294L49.0381 11.9949Z" fill="#1E63FF"/>
<path d="M12.5975 32.7455V28.6895L9.05983 26.6572L5.52637 28.6895V32.7455L9.05983 34.7777L12.5975 32.7455Z" fill="#1E63FF"/>
<path d="M10.1582 13.7397C10.1582 13.7397 14.5644 11.7582 14.5644 16.3181L16.5823 11.9826C16.5823 11.9826 13.8279 13.1258 12.5976 9.87842L10.1582 13.7397Z" fill="#1E63FF"/>
<path d="M36.7002 12.0504C36.7002 12.0504 39.7781 13.0792 40.5657 9.87842L41.8301 12.7278C41.8301 12.7278 38.5989 11.881 38.5989 14.434L36.7002 12.0504Z" fill="#1E63FF"/>
<path d="M38.5984 26.9408V13.1385L26.5761 6.2373L14.5581 13.1385V26.9408L26.5761 33.8462L38.5984 26.9408Z" fill="#1E63FF"/>
<path d="M25.147 21.9454H22.8638L22.1812 23.8873H20.0862L23.3581 15.6488H25.5354L27.6539 23.8873H25.5707L25.147 21.9454ZM24.8175 20.3918L24.2761 17.885L23.4052 20.3918H24.8175ZM29.1563 15.6488H31.0629L30.498 23.8873H28.5914L29.1563 15.6488Z" fill="white"/>
</g>
</g>
<defs>
<clipPath id="clip0_1353_926">
<rect width="53" height="36" fill="white"/>
</clipPath>
<clipPath id="clip1_1353_926">
<rect width="49.0385" height="39.2308" fill="white" transform="translate(0 1.49121)"/>
</clipPath>
</defs>
</svg>
