<svg width="27" height="26" viewBox="0 0 27 26" fill="none" xmlns="http://www.w3.org/2000/svg">
<path fill-rule="evenodd" clip-rule="evenodd" d="M22.4918 21.45V20.9251C22.4918 20.6766 22.2369 20.2692 22.015 20.1609L15.8829 17.1698C14.2291 16.3631 13.8204 14.4115 15.0053 13.0069L15.3969 12.5426C15.9942 11.8346 16.5335 10.3614 16.5335 9.43603V7.58356C16.5335 5.90949 15.1746 4.55 13.5002 4.55C11.8278 4.55 10.4668 5.9098 10.4668 7.58288V9.43507C10.4668 10.3628 11.0039 11.8305 11.6033 12.541L11.995 13.0052C13.1824 14.4125 12.7691 16.3623 11.1176 17.1682L4.98556 20.1606C4.76526 20.2681 4.5085 20.6794 4.5085 20.9251V21.45H22.4918ZM3.2085 21.6667V20.9251C3.2085 20.1829 3.74816 19.3179 4.41544 18.9923L10.5475 15.9999C11.4368 15.5659 11.6436 14.6047 11.0014 13.8435L10.6097 13.3793C9.81284 12.4348 9.16683 10.6703 9.16683 9.43506V7.58288C9.16683 5.1899 11.1118 3.25 13.5002 3.25C15.8934 3.25 17.8335 5.1924 17.8335 7.58356V9.43603C17.8335 10.6701 17.1845 12.4398 16.3906 13.3809L15.9989 13.8451C15.3603 14.6022 15.5598 15.5658 16.4528 16.0014L22.5849 18.9925C23.2515 19.3177 23.7918 20.1773 23.7918 20.9251V21.6667C23.7918 22.265 23.3068 22.75 22.7085 22.75H4.29183C3.69352 22.75 3.2085 22.265 3.2085 21.6667Z" fill="black"/>
</svg>
