<svg width="27" height="26" viewBox="0 0 27 26" fill="none" xmlns="http://www.w3.org/2000/svg">
<path fill-rule="evenodd" clip-rule="evenodd" d="M4.2085 22.75C3.65621 22.75 3.2085 22.3023 3.2085 21.75L3.2085 20.9251C3.2085 20.1829 3.74816 19.3179 4.41544 18.9923L10.5475 15.9999C11.4368 15.5659 11.6436 14.6047 11.0014 13.8435L10.6097 13.3793C9.81284 12.4348 9.16683 10.6703 9.16683 9.43506V7.58288C9.16683 5.1899 11.1118 3.25 13.5002 3.25C15.8934 3.25 17.8335 5.1924 17.8335 7.58356V9.43603C17.8335 10.6701 17.1845 12.4398 16.3906 13.3809L15.9989 13.8451C15.3603 14.6022 15.5598 15.5658 16.4528 16.0014L22.5849 18.9925C23.2515 19.3177 23.7918 20.1773 23.7918 20.9251V21.75C23.7918 22.3023 23.3441 22.75 22.7918 22.75H4.2085Z" fill="#1E63FF"/>
</svg>
