<svg width="131" height="33" viewBox="0 0 131 33" fill="none" xmlns="http://www.w3.org/2000/svg">
<g clip-path="url(#clip0_975_1961)">
<path d="M106.301 0.5V24.344H130.133V0.5H106.301ZM124.226 18.3869H112.302V6.42592H124.226V18.3869Z" fill="#74BEC6"/>
<path d="M112.255 18.3869V6.45711H124.164L130.133 0.5H106.286V24.3441L112.255 18.3869Z" fill="#EBA33E"/>
<path d="M14.48 3.0887C14.48 3.0887 15.7893 3.0887 16.8025 3.18226C17.1921 3.18226 18.6729 3.18226 19.1716 2.60527C19.2725 2.49664 19.349 2.3678 19.3962 2.22729C19.4435 2.08679 19.4603 1.93784 19.4455 1.79035C19.4308 1.64285 19.3848 1.50017 19.3107 1.3718C19.2366 1.24344 19.1361 1.13231 19.0158 1.04581C18.5329 0.671584 17.9243 0.498395 17.3168 0.562385H2.88353C1.95774 0.514721 1.05049 0.834102 0.358498 1.45127C0.236112 1.57246 0.142813 1.71985 0.0856308 1.88235C0.0284486 2.04485 0.00887487 2.21822 0.0283841 2.38938C0.0478933 2.56055 0.105988 2.72505 0.198269 2.8705C0.29055 3.01595 0.414619 3.13854 0.561132 3.22905C0.952389 3.4213 1.3906 3.49708 1.82365 3.44737C2.75553 3.20967 3.71438 3.09434 4.67602 3.10429H7.43487H7.65308L4.28635 18.4181C4.28635 18.4181 3.61612 21.0224 3.11735 22.3636C2.49388 24.0322 4.67602 24.2973 4.67602 24.2973C4.67602 24.2973 7.68424 24.8275 8.15185 22.6443L12.22 3.0887H14.48Z" fill="#ffffff"/>
<path d="M27.5885 8.11014L27.1053 8.26609C26.0888 7.80873 24.9928 7.55445 23.8788 7.51755C21.9594 7.436 20.0658 7.98355 18.4858 9.077C16.9063 10.323 15.595 11.8757 14.6307 13.6418C13.6664 15.4079 13.0691 17.3508 12.8746 19.3538C12.809 20.0261 12.8855 20.7047 13.099 21.3455C13.3125 21.9864 13.6583 22.5751 14.1139 23.0736C14.5695 23.5721 15.1248 23.9692 15.7437 24.2391C16.3626 24.509 17.0314 24.6457 17.7065 24.6404C20.0757 24.6404 21.7591 22.925 23.0683 21.2563C22.9216 21.867 22.8174 22.487 22.7566 23.1121C22.6631 23.8762 23.5515 24.5468 24.627 24.5468C25.7025 24.5468 26.6688 24.0322 26.7 23.2836C26.8656 21.4474 27.152 19.6241 27.5573 17.8255L28.2119 14.8782C28.8198 12.0867 29.2095 10.5585 29.4589 9.56044C29.4849 9.32428 29.45 9.08537 29.3574 8.8666C29.2647 8.64783 29.1175 8.4565 28.9298 8.31096C28.7421 8.16541 28.5202 8.07052 28.2853 8.03536C28.0505 8.0002 27.8105 8.02595 27.5885 8.11014ZM24.3309 14.2232C24.0648 16.2982 23.358 18.2922 22.2578 20.0712C21.9428 20.6274 21.4912 21.094 20.9458 21.4269C20.4003 21.7598 19.7789 21.948 19.1405 21.9737C17.5818 21.9737 17.0986 20.4142 17.161 18.3558C17.2545 15.8606 18.7196 9.3889 23.3956 9.56044C24.0609 9.60044 24.7144 9.75337 25.3284 10.0127L24.3309 14.2232Z" fill="#ffffff"/>
<path d="M79.383 8.11014L78.8999 8.26609C77.5145 7.65944 75.9988 7.41145 74.4924 7.54499C72.9861 7.67853 71.5376 8.1893 70.2804 9.03022C68.6982 10.2737 67.3851 11.8258 66.4205 13.5924C65.4559 15.3589 64.8601 17.3031 64.6692 19.307C64.6036 19.9793 64.6801 20.6579 64.8936 21.2988C65.1071 21.9396 65.4528 22.5284 65.9085 23.0269C66.3641 23.5254 66.9194 23.9224 67.5383 24.1923C68.1572 24.4623 68.826 24.599 69.5011 24.5936C71.8703 24.5936 73.5536 22.8782 74.8473 21.2096C74.7081 21.8217 74.604 22.4413 74.5356 23.0653C74.4577 23.8138 75.3461 24.4844 76.406 24.5C77.4659 24.5156 78.4634 23.9854 78.4946 23.2212C78.6617 21.3904 78.9481 19.5723 79.3519 17.7788L80.0065 14.8158C80.6144 12.04 81.0041 10.4961 81.2534 9.51365C81.2709 9.28124 81.2296 9.04818 81.1333 8.83596C81.037 8.62374 80.8888 8.43919 80.7025 8.29935C80.5161 8.15951 80.2976 8.06888 80.067 8.03581C79.8364 8.00274 79.6012 8.02831 79.383 8.11014ZM76.0787 14.2232C75.8148 16.3036 75.1079 18.3031 74.0056 20.0868C73.6851 20.6382 73.2322 21.1009 72.6879 21.4331C72.1436 21.7653 71.525 21.9565 70.8883 21.9893C69.3296 21.9893 68.8309 20.4298 68.9088 18.3558C69.0023 15.8606 70.4675 9.40449 75.0656 9.56044C75.7254 9.61357 76.3725 9.77148 76.9827 10.0283L76.0787 14.2232Z" fill="#ffffff"/>
<path d="M42.0997 7.23684C41.0946 7.17974 40.0938 7.40687 39.2117 7.89226C38.3296 8.37764 37.6019 9.10166 37.1119 9.98148C37.277 9.56711 37.382 9.13125 37.4237 8.68713C37.5172 7.9386 36.2547 7.33041 35.1948 7.33041C34.1349 7.33041 33.1373 7.84503 33.1061 8.59357C32.9325 10.4288 32.6462 12.2516 32.2489 14.0517L31.5942 16.999C31.4696 17.5604 31.3604 18.0595 31.2669 18.5585L29.5524 26.3558C29.5524 26.3558 28.9757 28.617 28.5392 29.7866C28.0093 31.2369 29.9265 31.4708 29.9265 31.4708C29.9265 31.4708 32.545 31.923 32.9503 30.0361L34.1816 24.0945C34.7538 24.2356 35.3386 24.3192 35.9273 24.3441C37.8437 24.441 39.7372 23.8919 41.3048 22.7846C42.8887 21.5449 44.2042 19.9961 45.1715 18.2322C46.1388 16.4682 46.7376 14.526 46.9316 12.5234C46.9971 11.8511 46.9207 11.1725 46.7072 10.5317C46.4937 9.89083 46.1479 9.30205 45.6923 8.80355C45.2367 8.30506 44.6814 7.90797 44.0625 7.63807C43.4435 7.36816 42.7748 7.23146 42.0997 7.23684ZM42.6608 13.4747C42.6608 15.9698 41.1021 22.4415 36.5196 22.27C35.8721 22.2236 35.2358 22.0762 34.6336 21.8333L35.2571 18.8704L35.5377 17.6072C35.7816 15.5245 36.4843 13.5219 37.5951 11.7437C37.9154 11.1933 38.3686 10.7321 38.9132 10.4024C39.4579 10.0727 40.0765 9.88509 40.7125 9.85672C42.2244 9.9191 42.7387 11.4318 42.6608 13.4903V13.4747Z" fill="#ffffff"/>
<path d="M59.8685 0.546785L54.0391 0.687136C52.2466 0.687136 51.7011 1.88792 51.6855 2.24659C51.6855 2.24659 49.3475 16.3752 48.8487 18.4181C48.8487 18.4181 48.272 21.038 47.82 22.4103C47.2589 24.0945 49.4878 24.2817 49.4878 24.2817C49.4878 24.2817 52.5116 24.7027 52.9013 22.5195L54.1638 15.0965C59.4944 15.2836 61.8169 13.9425 61.8169 13.9425C63.3539 13.2546 64.663 12.1425 65.5906 10.7366C66.5182 9.33069 67.0258 7.68926 67.054 6.00487C67.3969 0.094543 59.8685 0.546785 59.8685 0.546785ZM59.2606 11.884C57.7697 12.4474 56.1745 12.6815 54.5846 12.5702L56.2368 2.85478C56.2368 2.85478 57.624 2.7768 58.4189 2.85478C59.2139 2.93275 62.0039 2.85478 62.0506 5.84893C62.1614 7.01196 61.9615 8.18356 61.4713 9.24392C60.9811 10.3043 60.2182 11.2154 59.2606 11.884Z" fill="#ffffff"/>
<path d="M96.6531 7.73587C96.0408 7.66654 95.4231 7.80792 94.9018 8.13673C94.3805 8.46554 93.9867 8.96218 93.7852 9.54484L89.4832 20.461L88.0804 9.54484C87.7843 7.56433 85.0566 7.84503 85.0566 7.84503C85.0566 7.84503 83.0459 7.9542 83.4979 9.49806C83.872 10.73 84.3084 13.116 84.3084 13.116C85.2748 18.4025 85.6333 22.691 85.6333 22.691C85.6333 23.0965 85.758 24.0322 87.5661 24.4688C87.5661 24.4688 86.2568 29.1472 82.1107 29.3187C82.1107 29.3187 81.7366 29.3187 81.5964 29.9269C81.4561 30.5351 81.3002 32.6092 83.4512 32.6248C83.9304 32.6162 84.4007 32.4933 84.8228 32.2661C85.7459 31.7842 86.5706 31.1336 87.2543 30.3479C89.1024 28.2165 90.6017 25.806 91.6966 23.2057L97.7286 9.42008C97.7286 9.42008 98.5859 7.98538 96.6531 7.73587Z" fill="#ffffff"/>
</g>
<defs>
<clipPath id="clip0_975_1961">
<rect width="130.133" height="32" fill="white" transform="translate(0 0.5)"/>
</clipPath>
</defs>
</svg>
