<?xml version="1.0" encoding="UTF-8"?>
<svg version="1.1" xmlns="http://www.w3.org/2000/svg" width="1280" height="1280">
<path d="M0 0 C17.03015141 -0.0704112 34.0602567 -0.12314416 51.09052086 -0.15543652 C58.99985018 -0.170836 66.90908851 -0.19179128 74.81835938 -0.22631836 C81.72058163 -0.25643464 88.62273791 -0.27562511 95.52502406 -0.28226548 C99.172033 -0.28614056 102.81885338 -0.2950986 106.46580124 -0.31719017 C142.52492049 -0.52689958 175.21894646 4.980493 202 31 C223.01575891 51.94487945 232.18856894 79.09948768 232.25 108.375 C232.26622233 140.16838355 222.60511773 167.19513394 200.25 190.25 C176.16243793 214.14324485 141.99446165 220.22196051 109.390625 220.09765625 C107.92804005 220.09578592 106.46545446 220.09436493 105.00286865 220.09336853 C101.19553834 220.08959171 97.38824756 220.07980409 93.58093262 220.06866455 C89.67896051 220.05834512 85.77698188 220.05384859 81.875 220.04882812 C74.24998218 220.03817633 66.62499668 220.02115975 59 220 C58.99635437 220.90709213 58.99270874 221.81418427 58.98895264 222.74876404 C58.95097923 231.32568904 58.89402071 239.90223742 58.81609726 248.47889614 C58.77670219 252.88755653 58.74447487 257.29601958 58.72900391 261.70483398 C58.71378447 265.96502991 58.67924625 270.22468298 58.63169098 274.48463631 C58.61693141 276.10435309 58.60896212 277.72414739 58.60811615 279.3439312 C58.59550618 291.38915359 57.32688194 300.17658309 48.859375 309.27734375 C42.61161601 315.0657087 35.07209691 317.52361208 26.6484375 317.30859375 C18.26881842 316.33220746 11.60005618 312.17250637 6 306 C-3.15660452 293.60897299 -1.13992464 277.94245271 -1.07421875 263.23046875 C-1.06913179 261.29396164 -1.06448498 259.35745333 -1.06022644 257.42094421 C-1.04988318 253.06380054 -1.03638846 248.70667845 -1.02142334 244.34954834 C-0.99798344 237.05685748 -0.99087826 229.76418386 -0.98479676 222.4714644 C-0.97222976 207.87231923 -0.932305 193.27344948 -0.86789131 178.67444038 C-0.8329637 170.62431673 -0.80784151 162.57437395 -0.80444336 154.52416992 C-0.8013986 147.36409751 -0.7809161 140.20432349 -0.73947543 133.04436654 C-0.71834024 129.2942863 -0.70544916 125.54462904 -0.71384621 121.79448891 C-0.72281531 117.65073508 -0.69272617 113.50813178 -0.65942383 109.36450195 C-0.66804947 108.1526976 -0.67667511 106.94089325 -0.68556213 105.69236755 C-0.5660114 96.81560728 1.46655595 90.25662649 7.17578125 83.37890625 C15.74309748 76.09590434 21.93984308 74.32262051 33.3046875 74.59375 C40.65072382 75.40134807 45.79686138 78.4058073 50.875 83.6875 C57.9296306 92.85946831 58.6026069 101.90335939 58.609375 113.1953125 C58.62438598 114.63835478 58.64111916 116.08138006 58.65948486 117.52438354 C58.70284433 121.28898994 58.72308681 125.05336475 58.73822021 128.81817627 C58.75790584 132.67319254 58.79986218 136.52796276 58.83984375 140.3828125 C58.91480469 147.92180833 58.96530129 155.4606998 59 163 C67.39806851 163.04661014 75.79608177 163.08201344 84.1942482 163.10362434 C88.09504051 163.11400333 91.99574347 163.12805313 95.89648438 163.15087891 C99.67015189 163.1728196 103.44373418 163.18461271 107.21746063 163.18975449 C108.64775685 163.19341256 110.0780491 163.2005542 111.50830841 163.21146011 C130.46413657 163.35007914 147.71922684 160.5060098 162 147 C171.91474792 134.74079002 176.19931137 119.61008449 175 104 C173.07425539 89.69446862 167.80516395 77.77526949 157 68 C142.09329304 56.96856135 125.79469388 55.71572918 107.89428139 55.66447449 C105.05530034 55.65607853 102.21662488 55.63548063 99.37773132 55.61193848 C92.33469168 55.55596253 85.29157777 55.52037016 78.24841309 55.48431396 C72.27433961 55.45295682 66.30041791 55.41369731 60.32646751 55.36405945 C57.5430883 55.34414219 54.75982987 55.33570537 51.97639465 55.32775879 C50.25680104 55.31477739 48.53721138 55.30125577 46.81762695 55.28710938 C46.05532272 55.28809128 45.29301849 55.28907318 44.50761414 55.29008484 C31.30768335 55.13988409 20.83238251 50.53909564 11.26171875 41.44921875 C0.97502154 30.30973835 -0.93102101 16.60630203 -1 2 C-0.67 1.34 -0.34 0.68 0 0 Z " fill="#7A66AD" transform="translate(422,484)"/>
<path d="M0 0 C0.6698291 0.14453613 1.3396582 0.28907227 2.02978516 0.43798828 C24.08161796 5.40253703 52.82812241 15.4812771 66 35 C70.28857916 42.19111563 70.33470542 51.66912301 68.34375 59.62109375 C65.00214003 67.93190821 59.05691365 74.47297709 50.875 78.15234375 C43.04478265 80.4609812 34.47818873 80.18729763 27.1875 76.39453125 C23.65885705 74.14502137 20.35958572 71.59724202 17.01171875 69.08984375 C-3.52401154 54.84001793 -28.16642865 51.6718393 -52.4375 55.3125 C-66.66848873 58.05883116 -79.21075314 64.38309915 -90 74 C-90.68707031 74.60457031 -91.37414062 75.20914063 -92.08203125 75.83203125 C-112.82308019 95.26398046 -121.7395136 124.21659519 -122.92724609 151.85791016 C-123.72895211 181.57483862 -116.19003776 212.75890718 -95.28930664 234.85302734 C-78.54218812 251.76447463 -58.04890799 259.28618198 -34.5625 259.5 C-14.44408765 259.33208183 3.13155082 254.28472628 19.67651367 242.60302734 C29.06904703 235.98208265 36.24549913 233.58349567 48 235 C56.47451633 237.54010702 63.24633698 243.23101488 67.4375 251 C70.45186414 258.62073012 70.48602878 268.3227766 67.4375 275.9375 C56.59132613 295.84691504 30.64024363 305.28482532 10.07666016 311.40673828 C-20.87480955 320.24897569 -55.62609558 319.67868154 -86 309 C-86.63454102 308.77973145 -87.26908203 308.55946289 -87.92285156 308.33251953 C-124.10062032 295.51296534 -150.2932793 268.32337161 -166.84326172 234.28808594 C-175.69864625 215.60451212 -175.69864625 215.60451212 -174.46875 211.01953125 C-172.32455754 208.07126662 -169.65800932 205.77154733 -166.9375 203.375 C-147.03871234 185.29165546 -134.75388729 163.23336289 -129 137 C-128.82339844 136.24227295 -128.64679687 135.4845459 -128.46484375 134.70385742 C-126.66846442 126.19431232 -126.60114884 117.71713037 -126.625 109.0625 C-126.62631424 107.89956421 -126.62631424 107.89956421 -126.62765503 106.71313477 C-126.70129008 86.9473477 -130.62694305 70.30628511 -138 52 C-138.44214844 50.87464844 -138.88429688 49.74929688 -139.33984375 48.58984375 C-140.21077709 46.38616543 -141.09386037 44.18936841 -142 42 C-136.71584109 35.38127535 -130.69930843 30.15331418 -124 25 C-123.25363281 24.41476562 -122.50726562 23.82953125 -121.73828125 23.2265625 C-103.11621905 9.38188798 -80.83767424 1.27331604 -58 -2 C-56.82566406 -2.18304688 -55.65132812 -2.36609375 -54.44140625 -2.5546875 C-36.65461701 -4.7001507 -17.48237494 -3.7735511 0 0 Z " fill="#A8499A" transform="translate(798,486)"/>
<path d="M0 0 C0.6698291 0.14453613 1.3396582 0.28907227 2.02978516 0.43798828 C24.08161796 5.40253703 52.82812241 15.4812771 66 35 C70.28857916 42.19111563 70.33470542 51.66912301 68.34375 59.62109375 C65.00214003 67.93190821 59.05691365 74.47297709 50.875 78.15234375 C43.04478265 80.4609812 34.47818873 80.18729763 27.1875 76.39453125 C23.65885705 74.14502137 20.35958572 71.59724202 17.01171875 69.08984375 C-3.52401154 54.84001793 -28.16642865 51.6718393 -52.4375 55.3125 C-66.66848873 58.05883116 -79.21075314 64.38309915 -90 74 C-90.68707031 74.60457031 -91.37414062 75.20914063 -92.08203125 75.83203125 C-98.09694088 81.46730161 -102.48393248 88.15798792 -107 95 C-107.75461892 96.13320522 -108.5098037 97.26603388 -109.265625 98.3984375 C-109.83796875 99.25695312 -110.4103125 100.11546875 -111 101 C-113.03676701 97.94484949 -113.27064489 97.08673169 -113.45703125 93.60546875 C-113.51503906 92.73849365 -113.57304688 91.87151855 -113.6328125 90.97827148 C-113.69210937 90.05731689 -113.75140625 89.1363623 -113.8125 88.1875 C-114.58720073 78.28033481 -116.49969395 69.70296704 -121.1484375 60.80078125 C-122.25412411 58.4626091 -122.14178613 56.55215029 -122 54 C-122.66 54 -123.32 54 -124 54 C-125.34070318 51.39939496 -126.67273354 48.79495084 -128 46.1875 C-128.3815625 45.44951172 -128.763125 44.71152344 -129.15625 43.95117188 C-129.5171875 43.23896484 -129.878125 42.52675781 -130.25 41.79296875 C-130.58515625 41.1383667 -130.9203125 40.48376465 -131.265625 39.80932617 C-132 38 -132 38 -132 35 C-133.32 35.99 -134.64 36.98 -136 38 C-136.66 37.67 -137.32 37.34 -138 37 C-115.76871334 15.65974687 -88.52627162 2.37532008 -58 -2 C-56.82566406 -2.18304688 -55.65132812 -2.36609375 -54.44140625 -2.5546875 C-36.65461701 -4.7001507 -17.48237494 -3.7735511 0 0 Z " fill="#3C99CF" transform="translate(798,486)"/>
<path d="M0 0 C1.33957921 2.78871177 2.67058435 5.58143062 4 8.375 C4.57234375 9.56609375 4.57234375 9.56609375 5.15625 10.78125 C5.69765625 11.92207031 5.69765625 11.92207031 6.25 13.0859375 C6.58515625 13.7876709 6.9203125 14.4894043 7.265625 15.21240234 C8 17 8 17 8 19 C8.66 19 9.32 19 10 19 C10.67117688 21.04885575 11.34128281 23.09806522 12.0078125 25.1484375 C12.6915361 27.1134699 13.44088944 29.05647091 14.2421875 30.9765625 C18.21616721 40.82921042 19.1424734 50.30205318 19.78222656 60.84033203 C19.93868824 63.01341078 19.93868824 63.01341078 20.58959961 65.10009766 C21.26832428 68.24217699 19.67240221 70.41824237 18.3125 73.25 C9.67085714 92.35746527 8.47264429 113.28663954 9 134 C8.34 134 7.68 134 7 134 C6.690625 135.175625 6.38125 136.35125 6.0625 137.5625 C0.80580075 153.13699965 -11.038466 167.0564689 -23 178 C-23.66 178 -24.32 178 -25 178 C-25.33 178.99 -25.66 179.98 -26 181 C-26.99 181.33 -27.98 181.66 -29 182 C-30.2065625 183.2065625 -30.2065625 183.2065625 -31.4375 184.4375 C-33.64973661 186.64973661 -35.15760017 187.84198526 -38 189 C-38 188.34 -38 187.68 -38 187 C-38.66 187 -39.32 187 -40 187 C-40.99 183.37 -41.98 179.74 -43 176 C-41.9378125 175.02160156 -40.875625 174.04320312 -39.78125 173.03515625 C-18.00975562 152.89143715 -3.42171492 131.27815047 3 102 C3.17660156 101.24227295 3.35320313 100.4845459 3.53515625 99.70385742 C5.33153558 91.19431232 5.39885116 82.71713037 5.375 74.0625 C5.37368576 72.89956421 5.37368576 72.89956421 5.37234497 71.71313477 C5.28821992 49.13152557 0.16896533 29.27857105 -9.6640625 8.91015625 C-10 7 -10 7 -8.74609375 4.85546875 C-6.30797246 2.26462398 -3.67389729 0 0 0 Z " fill="#5B3E8A" transform="translate(666,521)"/>
<path d="M0 0 C17.03015141 -0.0704112 34.0602567 -0.12314416 51.09052086 -0.15543652 C58.99985018 -0.170836 66.90908851 -0.19179128 74.81835938 -0.22631836 C81.72058163 -0.25643464 88.62273791 -0.27562511 95.52502406 -0.28226548 C99.172033 -0.28614056 102.81885338 -0.2950986 106.46580124 -0.31719017 C142.52492049 -0.52689958 175.21894646 4.980493 202 31 C223.01927315 51.94838184 232.18128507 79.09701427 232.25 108.375 C232.25167175 109.04207977 232.25334351 109.70915955 232.25506592 110.39645386 C232.25688848 122.52616895 231.91134282 134.70391151 227 146 C225.71917034 142.15751103 226.48859492 140.1356621 227.375 136.1875 C228.78707681 129.34645215 229.43385169 122.59980003 229.75 115.625 C229.79431152 114.72289795 229.83862305 113.8207959 229.88427734 112.89135742 C230.11167079 106.83770012 229.74207068 101.00754615 229 95 C228.86980469 93.82953125 228.73960937 92.6590625 228.60546875 91.453125 C225.43593089 67.16320868 214.82709489 46.80840376 197 30 C196.01 29.34 195.02 28.68 194 28 C194 27.34 194 26.68 194 26 C193.44828125 25.731875 192.8965625 25.46375 192.328125 25.1875 C189.74911961 23.87203416 187.24917932 22.46150838 184.75 21 C183.85796875 20.484375 182.9659375 19.96875 182.046875 19.4375 C181.03367187 18.7259375 181.03367187 18.7259375 180 18 C180 17.34 180 16.68 180 16 C174.06 14.515 174.06 14.515 168 13 C168 12.34 168 11.68 168 11 C165.50935112 10.31292445 163.62113708 10 161 10 C161 9.34 161 8.68 161 8 C154.07071367 6.49918683 147.12800425 5.4074152 140.1015625 4.46484375 C137 4 137 4 135.18852234 3.50558472 C121.43785573 0.32895418 105.875868 1.85388037 91.88671875 1.8671875 C89.37946056 1.86651286 86.87220243 1.8655415 84.36494446 1.86428833 C79.14311085 1.86282244 73.92129448 1.86493242 68.69946289 1.86962891 C62.6637798 1.87479234 56.62813818 1.87327801 50.59245652 1.8678025 C44.76238157 1.86272604 38.93231941 1.86325121 33.10224342 1.86618423 C30.62820239 1.86685227 28.1541605 1.86602936 25.68012047 1.86370468 C22.24074354 1.86117852 18.80143253 1.86501649 15.36206055 1.87060547 C14.33618332 1.86858124 13.31030609 1.86655701 12.25334167 1.86447144 C10.85553467 1.86870117 10.85553467 1.86870117 9.42948914 1.87301636 C8.61751414 1.87339338 7.80553915 1.87377041 6.96895885 1.87415886 C4.92219476 1.87671333 4.92219476 1.87671333 3 3 C2.89704997 10.40096336 2.80013275 17.68080976 4 25 C4.66 25.66 5.32 26.32 6 27 C6.37125 28.175625 6.7425 29.35125 7.125 30.5625 C9.25824348 36.46662842 13.49102992 42.06100888 19.04296875 45.12890625 C20.68626721 45.7760609 22.34218086 46.39100521 24 47 C24.33 47.99 24.66 48.98 25 50 C26.299375 50.144375 27.59875 50.28875 28.9375 50.4375 C32.875 50.875 32.875 50.875 34 52 C38.35985559 52.40055042 42.74930751 52.43811195 47.125 52.5625 C47.82698517 52.58434357 48.52897034 52.60618713 49.25222778 52.62869263 C60.89328631 52.98044008 72.53057478 53.02382814 84.17578125 52.9921875 C84.88198357 52.99055288 85.58818588 52.98891827 86.31578827 52.98723412 C93.52138663 52.97040483 100.72674447 52.94515775 107.93216038 52.89009857 C110.01134697 52.87553741 112.0905039 52.86531728 114.16972351 52.85684204 C116.7544173 52.84572302 119.33909225 52.82673538 121.92366028 52.79891968 C123.65225533 52.79391953 123.65225533 52.79391953 125.41577148 52.78881836 C126.93073463 52.77763222 126.93073463 52.77763222 128.4763031 52.76622009 C131 53 131 53 134 55 C135.98985949 55.38932033 137.99199544 55.71887936 140 56 C141.66804677 56.32635698 143.33524314 56.65725594 145 57 C145 57.66 145 58.32 145 59 C145.86496094 59.06832031 146.72992187 59.13664063 147.62109375 59.20703125 C151.79200771 60.18587002 153.83202135 61.89886746 157.0625 64.6875 C158.06410156 65.53699219 159.06570313 66.38648438 160.09765625 67.26171875 C169.41924692 76.05638236 177.62285248 88.17116733 178.3125 101.27734375 C178.6202068 113.47959923 178.57066849 130.96159777 170.49609375 140.83984375 C169 142 169 142 167 142 C166.835 142.845625 166.67 143.69125 166.5 144.5625 C163.53841167 151.34947327 155.80121853 157.0827819 148.9921875 159.80175781 C146.79979694 160.53156173 144.5987719 161.1851338 142.375 161.8125 C141.62476563 162.04130859 140.87453125 162.27011719 140.1015625 162.50585938 C136.32442605 163.60082712 133.75304749 164.18267426 130 163 C131.14855469 162.67128906 132.29710937 162.34257813 133.48046875 162.00390625 C146.85727781 157.98754064 158.84085875 153.04518265 166.57421875 140.66796875 C175.40351105 124.14630672 177.39978178 108.08108747 172 90 C166.70483809 76.08322832 157.78412022 67.22761526 144.56640625 60.8203125 C132.81636264 55.66909338 120.48711239 55.70053185 107.89428139 55.66447449 C105.05530034 55.65607853 102.21662488 55.63548063 99.37773132 55.61193848 C92.33469168 55.55596253 85.29157777 55.52037016 78.24841309 55.48431396 C72.27433961 55.45295682 66.30041791 55.41369731 60.32646751 55.36405945 C57.5430883 55.34414219 54.75982987 55.33570537 51.97639465 55.32775879 C50.25680104 55.31477739 48.53721138 55.30125577 46.81762695 55.28710938 C46.05532272 55.28809128 45.29301849 55.28907318 44.50761414 55.29008484 C31.30768335 55.13988409 20.83238251 50.53909564 11.26171875 41.44921875 C0.97502154 30.30973835 -0.93102101 16.60630203 -1 2 C-0.67 1.34 -0.34 0.68 0 0 Z " fill="#558AC7" transform="translate(422,484)"/>
<path d="M0 0 C14.81360902 -0.07047897 29.62720491 -0.12317673 44.44094658 -0.15543652 C51.32120283 -0.17082192 58.20135414 -0.19174929 65.08154297 -0.22631836 C71.7340754 -0.25972728 78.38647688 -0.27690505 85.03909683 -0.28463173 C87.56412587 -0.29013087 90.08914966 -0.3008679 92.61413193 -0.31719017 C127.46055636 -0.53327877 159.25080457 5.98300918 185 31 C206.01927315 51.94838184 215.18128507 79.09701427 215.25 108.375 C215.25167175 109.04207977 215.25334351 109.70915955 215.25506592 110.39645386 C215.25688848 122.52616895 214.91134282 134.70391151 210 146 C208.71917034 142.15751103 209.48859492 140.1356621 210.375 136.1875 C211.78707681 129.34645215 212.43385169 122.59980003 212.75 115.625 C212.79431152 114.72289795 212.83862305 113.8207959 212.88427734 112.89135742 C213.11167079 106.83770012 212.74207068 101.00754615 212 95 C211.86980469 93.82953125 211.73960937 92.6590625 211.60546875 91.453125 C208.43593089 67.16320868 197.82709489 46.80840376 180 30 C179.01 29.34 178.02 28.68 177 28 C177 27.34 177 26.68 177 26 C176.44828125 25.731875 175.8965625 25.46375 175.328125 25.1875 C172.74911961 23.87203416 170.24917932 22.46150838 167.75 21 C166.85796875 20.484375 165.9659375 19.96875 165.046875 19.4375 C164.03367187 18.7259375 164.03367187 18.7259375 163 18 C163 17.34 163 16.68 163 16 C157.06 14.515 157.06 14.515 151 13 C151 12.34 151 11.68 151 11 C148.50935112 10.31292445 146.62113708 10 144 10 C144 9.34 144 8.68 144 8 C137.07071367 6.49918683 130.12800425 5.4074152 123.1015625 4.46484375 C120 4 120 4 118.21833801 3.50585938 C107.62173991 1.08946094 95.83812701 1.86950356 85.02448463 1.92483521 C82.44280299 1.93788793 79.86117424 1.94418682 77.27946472 1.94897461 C70.86877687 1.96217207 64.45814003 1.98631939 58.04748535 2.01037598 C52.61172941 2.03036126 47.17599325 2.04589398 41.74020958 2.05593872 C39.23707264 2.06226608 36.7340216 2.07476849 34.23091125 2.08764648 C22.79293932 2.12351855 11.41767487 1.66789899 0 1 C0 0.67 0 0.34 0 0 Z " fill="#49A4DB" transform="translate(439,484)"/>
<path d="M0 0 C0.66 0 1.32 0 2 0 C1.99738159 0.76332138 1.99476318 1.52664276 1.99206543 2.31309509 C1.94782007 17.39971245 1.97811693 32.48144868 2.21875 47.56640625 C2.22967493 48.25508789 2.24059986 48.94376953 2.25185585 49.65332031 C2.33144569 54.62310025 2.41541012 59.59280306 2.5 64.5625 C2.60141837 70.52989035 2.70026393 76.49731109 2.79296875 82.46484375 C2.80423986 83.18905518 2.81551098 83.9132666 2.82712364 84.65942383 C2.96284731 93.60905172 3.02238271 102.55327627 2.92578125 111.50390625 C2.91751312 112.40192459 2.909245 113.29994293 2.90072632 114.22517395 C2.86152846 118.17292848 2.80126894 122.1180727 2.69921875 126.06469727 C2.55768675 133.9263303 3.47902073 139.92956753 7 147 C7.33 147.99 7.66 148.98 8 150 C9.75298803 151.06554852 9.75298803 151.06554852 12 152 C12.94875 152.52078125 13.8975 153.0415625 14.875 153.578125 C15.90625 154.12984375 16.9375 154.6815625 18 155.25 C19.03125 155.81203125 20.0625 156.3740625 21.125 156.953125 C23.91239176 158.31132859 23.91239176 158.31132859 26.375 157.171875 C26.91125 156.78515625 27.4475 156.3984375 28 156 C28 156.66 28 157.32 28 158 C35.79167167 157.14278817 40.92619933 156.01748751 47 151 C47.66 151 48.32 151 49 151 C49.28875 150.236875 49.5775 149.47375 49.875 148.6875 C51 146 51 146 53 143 C54.74938001 137.18919387 55.38396814 131.73114153 55.6328125 125.6875 C55.67437469 124.83317383 55.71593689 123.97884766 55.75875854 123.09863281 C55.88836149 120.39938028 56.0068637 117.69977618 56.125 115 C56.21150305 113.15751736 56.29873562 111.31506881 56.38671875 109.47265625 C56.59957871 104.98212082 56.80249232 100.49123579 57 96 C57.33 96 57.66 96 58 96 C58.09944869 101.81660061 58.1717413 107.63269792 58.21972656 113.44995117 C58.23974646 115.4256249 58.26697092 117.40124009 58.30175781 119.37670898 C58.35070207 122.2291515 58.37306525 125.08080549 58.390625 127.93359375 C58.41127014 128.80584091 58.43191528 129.67808807 58.45318604 130.57676697 C58.45648207 139.74286741 55.04558638 146.62848836 48.859375 153.27734375 C42.61161601 159.0657087 35.07209691 161.52361208 26.6484375 161.30859375 C18.26881842 160.33220746 11.60005618 156.17250637 6 150 C-3.07750091 137.71601867 -1.16658249 122.35534747 -1.125 107.75 C-1.12411377 106.84754547 -1.12322754 105.94509094 -1.12231445 105.01528931 C-1.0834643 70.00943396 -0.47932356 35.00198615 0 0 Z " fill="#CA4781" transform="translate(422,640)"/>
<path d="M0 0 C0.6698291 0.14453613 1.3396582 0.28907227 2.02978516 0.43798828 C24.08161796 5.40253703 52.82812241 15.4812771 66 35 C70.28857916 42.19111563 70.33470542 51.66912301 68.34375 59.62109375 C65.00214003 67.93190821 59.05691365 74.47297709 50.875 78.15234375 C43.04478265 80.4609812 34.47818873 80.18729763 27.1875 76.39453125 C23.66752214 74.15054536 20.37578596 71.61314688 17.046875 69.09765625 C11.69519617 65.41323121 5.86823392 62.76591917 0 60 C-1.3354908 59.33766583 -2.66995062 58.67319453 -4 58 C-2 57 -2 57 0.43359375 57.75 C7.83664579 60.83059383 14.35653499 64.53316883 21 69 C22.97433486 70.29904017 24.95342882 71.59087966 26.9375 72.875 C28.25041016 73.73738281 28.25041016 73.73738281 29.58984375 74.6171875 C34.72803513 77.56519358 40.2005736 77.60552834 46 77 C53.54843505 74.85555823 60.22663062 70.30938706 64.4375 63.625 C67.66624311 56.26515762 67.33808211 46.93655123 64.7890625 39.4375 C62.44388044 34.5804732 60.06239301 30.60373574 56 27 C53.8618034 26.2127322 53.8618034 26.2127322 52 26 C52 25.34 52 24.68 52 24 C50.515 23.505 50.515 23.505 49 23 C48.34 22.67 47.68 22.34 47 22 C47 21.34 47 20.68 47 20 C46.30519531 19.89816406 45.61039063 19.79632813 44.89453125 19.69140625 C41.50947448 18.88282994 38.77712981 17.53324287 35.6875 15.9375 C34.61886719 15.38964844 33.55023437 14.84179688 32.44921875 14.27734375 C31.64097656 13.85582031 30.83273437 13.43429687 30 13 C30 12.34 30 11.68 30 11 C28.824375 10.87625 28.824375 10.87625 27.625 10.75 C24.56209794 10.11629612 22.23304963 9.32656902 19.38671875 8.1171875 C14.39583198 6.09100388 9.42614715 4.60806821 4.1875 3.375 C3.28878174 3.16335205 2.39006348 2.9517041 1.46411133 2.73364258 C-24.49213443 -3.07328033 -49.9853658 -0.93147205 -76 3 C-73.20959807 0.20959807 -70.12566483 0.08076284 -66.375 -0.5625 C-65.68792969 -0.68818359 -65.00085938 -0.81386719 -64.29296875 -0.94335938 C-43.32037578 -4.7011129 -20.8462415 -4.49963794 0 0 Z " fill="#45B7E4" transform="translate(798,486)"/>
<path d="M0 0 C2.97474673 3.4876341 5.02090219 6.87687957 7 11 C9.82033006 16.10020039 12.87975962 20.97352881 16.125 25.8125 C16.56714844 26.47958984 17.00929688 27.14667969 17.46484375 27.83398438 C19.18257599 30.40539322 20.80761825 32.80761825 23 35 C24.96667105 37.42556096 26.89749333 39.8608838 28.75 42.375 C41.67425377 57.45329606 61.78956902 70.71713148 81 76 C81.99 76 82.98 76 84 76 C84 76.66 84 77.32 84 78 C84.72703125 78.18175781 85.4540625 78.36351562 86.203125 78.55078125 C87.20859375 78.80214844 88.2140625 79.05351563 89.25 79.3125 C90.34570312 79.58449219 91.44140625 79.85648438 92.5703125 80.13671875 C94.75639542 80.68697425 96.93916765 81.25068009 99.1171875 81.83203125 C105.41554202 83.49250653 111.49685134 84.58276259 118 85 C117.67 85.66 117.34 86.32 117 87 C81.66597919 86.29074046 49.44815937 67.75250915 25.48046875 42.828125 C16.65978109 33.33814937 10.12299942 22.35717634 4 11 C3.54367187 10.15824219 3.08734375 9.31648437 2.6171875 8.44921875 C1.05008629 5.45200071 0 3.42919451 0 0 Z " fill="#DB478A" transform="translate(630,715)"/>
<path d="M0 0 C7.81995582 3.61104993 14.18869643 9.29364298 17.39453125 17.3984375 C19.36244497 25.5029816 19.37786628 34.64275612 15.39453125 42.11328125 C9.1622434 51.43445812 9.1622434 51.43445812 4.8359375 52.8359375 C4.248125 52.92875 3.6603125 53.0215625 3.0546875 53.1171875 C3.7971875 52.4159375 4.5396875 51.7146875 5.3046875 50.9921875 C9.06786185 47.05795977 11.86660248 43.4635701 13.0546875 38.1171875 C13.7146875 37.7871875 14.3746875 37.4571875 15.0546875 37.1171875 C17.43931335 29.72484738 16.69697734 22.00224308 13.25390625 15.15234375 C9.49699566 8.77660949 4.80237666 4.69121695 -2.0703125 1.8046875 C-9.58598695 0.47126139 -16.52326161 0.82547877 -22.9453125 5.1171875 C-24.09580078 5.79007813 -24.09580078 5.79007813 -25.26953125 6.4765625 C-29.72700482 9.09947257 -34.0047534 11.83329856 -38.1953125 14.8671875 C-41.70131298 17.37147356 -44.74772228 18.99100476 -48.9453125 20.1171875 C-49.9353125 20.7771875 -50.9253125 21.4371875 -51.9453125 22.1171875 C-54.1015625 22.49609375 -54.1015625 22.49609375 -56.4453125 22.6796875 C-59.22420852 22.90663068 -61.26786513 23.22470504 -63.9453125 24.1171875 C-65.50439904 24.48609053 -67.06724291 24.83934629 -68.6328125 25.1796875 C-69.84517578 25.44458984 -69.84517578 25.44458984 -71.08203125 25.71484375 C-72.00435547 25.91400391 -72.00435547 25.91400391 -72.9453125 26.1171875 C-72.9453125 25.1271875 -72.9453125 24.1371875 -72.9453125 23.1171875 C-71.80835938 22.89804687 -70.67140625 22.67890625 -69.5 22.453125 C-55.28836683 19.59130707 -43.17514268 15.12678097 -31.26879883 6.72021484 C-21.40634894 -0.23198142 -12.2387319 -3.66837322 0 0 Z " fill="#7477C1" transform="translate(848.9453125,721.8828125)"/>
<path d="M0 0 C0.33 0 0.66 0 1 0 C1.09944869 5.81660061 1.1717413 11.63269792 1.21972656 17.44995117 C1.23974646 19.4256249 1.26697092 21.40124009 1.30175781 23.37670898 C1.35070207 26.2291515 1.37306525 29.08080549 1.390625 31.93359375 C1.41127014 32.80584091 1.43191528 33.67808807 1.45318604 34.57676697 C1.45648207 43.74286741 -1.95441362 50.62848836 -8.140625 57.27734375 C-14.38838399 63.0657087 -21.92790309 65.52361208 -30.3515625 65.30859375 C-39.6271017 64.22781558 -46.86606569 59.22397668 -52.5703125 52.015625 C-55.49535041 47.70328339 -56.67570922 44.18865245 -57 39 C-56.67 39.66 -56.34 40.32 -56 41 C-55.34 41 -54.68 41 -54 41 C-53.35309078 42.6037331 -52.70751236 44.20800306 -52.0625 45.8125 C-51.70285156 46.70582031 -51.34320313 47.59914063 -50.97265625 48.51953125 C-50.26386514 50.3270909 -49.6139753 52.15807409 -49 54 C-47.24701197 55.06554852 -47.24701197 55.06554852 -45 56 C-44.05125 56.52078125 -43.1025 57.0415625 -42.125 57.578125 C-41.09375 58.12984375 -40.0625 58.6815625 -39 59.25 C-37.96875 59.81203125 -36.9375 60.3740625 -35.875 60.953125 C-33.08760824 62.31132859 -33.08760824 62.31132859 -30.625 61.171875 C-30.08875 60.78515625 -29.5525 60.3984375 -29 60 C-29 60.66 -29 61.32 -29 62 C-21.20832833 61.14278817 -16.07380067 60.01748751 -10 55 C-9.34 55 -8.68 55 -8 55 C-7.71125 54.236875 -7.4225 53.47375 -7.125 52.6875 C-6 50 -6 50 -4 47 C-2.25061999 41.18919387 -1.61603186 35.73114153 -1.3671875 29.6875 C-1.32562531 28.83317383 -1.28406311 27.97884766 -1.24124146 27.09863281 C-1.11163851 24.39938028 -0.9931363 21.69977618 -0.875 19 C-0.78849695 17.15751736 -0.70126438 15.31506881 -0.61328125 13.47265625 C-0.40042129 8.98212082 -0.19750768 4.49123579 0 0 Z " fill="#F4386E" transform="translate(479,736)"/>
<path d="M0 0 C3.77541651 -0.00223324 7.55056085 -0.02060348 11.32592773 -0.03930664 C13.73022362 -0.04223314 16.13452088 -0.0442229 18.53881836 -0.04516602 C20.22910408 -0.05594429 20.22910408 -0.05594429 21.95353699 -0.06694031 C23.50335014 -0.06232536 23.50335014 -0.06232536 25.08447266 -0.05761719 C25.99376022 -0.05904221 26.90304779 -0.06046722 27.83988953 -0.06193542 C30.02709961 0.18530273 30.02709961 0.18530273 32.02709961 2.18530273 C22.8143336 3.14071724 13.6689449 3.31822987 4.41772461 3.28295898 C2.95513966 3.28108865 1.49255407 3.27966767 0.02996826 3.27867126 C-3.77736205 3.27489444 -7.58465284 3.26510683 -11.39196777 3.25396729 C-15.29393988 3.24364785 -19.19591851 3.23915132 -23.09790039 3.23413086 C-30.72291821 3.22347907 -38.34790371 3.20646249 -45.97290039 3.18530273 C-45.96782471 4.0125737 -45.96274902 4.83984467 -45.95751953 5.69218445 C-45.93387426 12.40107857 -46.02694953 19.06987567 -46.41040039 25.76733398 C-46.45479248 26.59238937 -46.49918457 27.41744476 -46.54492188 28.26750183 C-46.68431208 30.8444598 -46.82849962 33.42112122 -46.97290039 35.99780273 C-47.06957599 37.7692696 -47.16593236 39.54075391 -47.26196289 41.31225586 C-47.49526885 45.6034812 -47.73287046 49.89444847 -47.97290039 54.18530273 C-48.30290039 54.18530273 -48.63290039 54.18530273 -48.97290039 54.18530273 C-48.99821966 47.26188944 -49.01575428 40.33848805 -49.02783203 33.41503906 C-49.03286614 31.05891473 -49.03969385 28.70279353 -49.04833984 26.34667969 C-49.06044569 22.96345243 -49.06613788 19.58026642 -49.07055664 16.19702148 C-49.07571793 15.14069016 -49.08087921 14.08435883 -49.0861969 12.99601746 C-49.08627243 12.0152272 -49.08634796 11.03443695 -49.08642578 10.02392578 C-49.08864639 9.16010788 -49.090867 8.29628998 -49.09315491 7.40629578 C-48.97290039 5.18530273 -48.97290039 5.18530273 -47.97290039 2.18530273 C-44.6194966 0.50860084 -40.83565604 0.79719791 -37.14086914 0.63452148 C-36.2183989 0.59268234 -35.29592865 0.5508432 -34.34550476 0.50773621 C-22.90075659 0.0377704 -11.45289405 -0.00076104 0 0 Z " fill="#9C579D" transform="translate(526.972900390625,700.814697265625)"/>
<path d="M0 0 C0 0.66 0 1.32 0 2 C-1.5159375 3.0828125 -1.5159375 3.0828125 -3.0625 4.1875 C-4.73992462 5.44955915 -4.73992462 5.44955915 -6 7 C-6.19650383 12.50210728 -4.37587942 14.90802495 -1 19 C-0.24592899 21.30657014 0.411438 23.645752 1 26 C1.49304412 27.39830547 1.99350549 28.79401013 2.5 30.1875 C4.11415184 34.90767128 4.86102674 39.66608054 5.5703125 44.59375 C5.7533691 46.94396665 5.7533691 46.94396665 7 48 C11.80186522 72.00932609 7.88295492 100.32442277 -1 123 C-2.40361284 118.78916147 -0.93082409 115.59724146 0.3125 111.5 C4.08272155 98.95407759 5.41099962 87.12531887 5.375 74.0625 C5.37412384 73.28720947 5.37324768 72.51191895 5.37234497 71.71313477 C5.28821992 49.13152557 0.16896533 29.27857105 -9.6640625 8.91015625 C-10 7 -10 7 -8.74609375 4.85546875 C-6.30797246 2.26462398 -3.67389729 0 0 0 Z " fill="#5C4E95" transform="translate(666,521)"/>
<path d="M0 0 C14.81360902 -0.07047897 29.62720491 -0.12317673 44.44094658 -0.15543652 C51.32120283 -0.17082192 58.20135414 -0.19174929 65.08154297 -0.22631836 C71.7340754 -0.25972728 78.38647688 -0.27690505 85.03909683 -0.28463173 C87.56412587 -0.29013087 90.08914966 -0.3008679 92.61413193 -0.31719017 C106.73062231 -0.40472893 120.17191614 0.00622769 134 3 C133.67 3.66 133.34 4.32 133 5 C130.72886197 4.85899143 128.45809275 4.71203245 126.1875 4.5625 C124.92292969 4.48128906 123.65835938 4.40007812 122.35546875 4.31640625 C119 4 119 4 116 3 C105.70234755 1.89362333 95.36827806 1.8719077 85.02448463 1.92483521 C82.44280299 1.93788793 79.86117424 1.94418682 77.27946472 1.94897461 C70.86877687 1.96217207 64.45814003 1.98631939 58.04748535 2.01037598 C52.61172941 2.03036126 47.17599325 2.04589398 41.74020958 2.05593872 C39.23707264 2.06226608 36.7340216 2.07476849 34.23091125 2.08764648 C22.79293932 2.12351855 11.41767487 1.66789899 0 1 C0 0.67 0 0.34 0 0 Z " fill="#5293CD" transform="translate(439,484)"/>
<path d="M0 0 C5.61 0 11.22 0 17 0 C17.33 0.66 17.66 1.32 18 2 C17.08476562 1.98839844 16.16953125 1.97679687 15.2265625 1.96484375 C14.03804688 1.95582031 12.84953125 1.94679688 11.625 1.9375 C9.84996094 1.92009766 9.84996094 1.92009766 8.0390625 1.90234375 C5.08078479 1.78533407 5.08078479 1.78533407 3 3 C2.89704997 10.40096336 2.80013275 17.68080976 4 25 C4.66 25.66 5.32 26.32 6 27 C6.37125 28.175625 6.7425 29.35125 7.125 30.5625 C9.25824348 36.46662842 13.49102992 42.06100888 19.04296875 45.12890625 C20.68626721 45.7760609 22.34218086 46.39100521 24 47 C24.33 47.99 24.66 48.98 25 50 C26.299375 50.144375 27.59875 50.28875 28.9375 50.4375 C32.875 50.875 32.875 50.875 34 52 C36.0708472 52.1584265 38.14678029 52.25124422 40.22265625 52.31640625 C42.11274414 52.37924805 42.11274414 52.37924805 44.04101562 52.44335938 C45.38150736 52.48317596 46.7220022 52.52288814 48.0625 52.5625 C49.40691523 52.60568042 50.7513166 52.64929456 52.09570312 52.69335938 C55.3970234 52.79985358 58.69842236 52.9018646 62 53 C58.8388893 55.10740713 58.04632054 55.25551258 54.4296875 55.265625 C53.5325 55.26820313 52.6353125 55.27078125 51.7109375 55.2734375 C50.77507812 55.26570312 49.83921875 55.25796875 48.875 55.25 C47.50601563 55.26160156 47.50601563 55.26160156 46.109375 55.2734375 C32.17414798 55.233736 21.44445064 51.12041622 11.26171875 41.44921875 C0.97502154 30.30973835 -0.93102101 16.60630203 -1 2 C-0.67 1.34 -0.34 0.68 0 0 Z " fill="#657BBE" transform="translate(422,484)"/>
<path d="M0 0 C1.54825775 3.0965155 0.8126967 5.76614437 0 9 C-8.02518766 32.17272938 -24.48145563 52.21277187 -46 64 C-48.41015625 64.7421875 -48.41015625 64.7421875 -50 65 C-47.83676753 62.68757908 -45.62352196 60.9843604 -42.9375 59.3125 C-42.24527344 58.87550781 -41.55304687 58.43851563 -40.83984375 57.98828125 C-39 57 -39 57 -37 57 C-37 56.01 -37 55.02 -37 54 C-35.42578125 52.7890625 -35.42578125 52.7890625 -33.3125 51.625 C-27.74450388 48.33929204 -24.19232836 44.62457853 -21 39 C-20.34 38.34 -19.68 37.68 -19 37 C-17.47725878 35.02913779 -16.00486719 33.0244836 -14.52734375 31.01953125 C-13.31565128 29.41737011 -12.01535208 27.88229155 -10.6875 26.375 C-8.68685247 23.55927385 -8.51333409 21.37333827 -8 18 C-7.53980469 17.59265625 -7.07960938 17.1853125 -6.60546875 16.765625 C-4.21071211 14.13197537 -3.76537272 11.2892639 -2.875 7.875 C-1.08333333 1.08333333 -1.08333333 1.08333333 0 0 Z " fill="#7379BA" transform="translate(648,625)"/>
<path d="M0 0 C0.33 0 0.66 0 1 0 C1.33 20.13 1.66 40.26 2 61 C35.66 61.495 35.66 61.495 70 62 C70 62.33 70 62.66 70 63 C61.02087841 63.15359279 52.04168888 63.30177448 43.06236362 63.4429636 C38.8933325 63.5086885 34.72434974 63.57630824 30.55541992 63.64819336 C26.53548705 63.71744068 22.51550342 63.78179563 18.49543571 63.84269524 C16.95834423 63.86685276 15.42127987 63.89280159 13.88424873 63.92053413 C11.73871227 63.95894595 9.59316947 63.99110421 7.44750977 64.02172852 C6.22395279 64.04171402 5.00039581 64.06169952 3.73976135 64.08229065 C1 64 1 64 0 63 C-0.0940067 61.03630847 -0.11743381 59.06920801 -0.11352539 57.10327148 C-0.11344986 55.84203964 -0.11337433 54.5808078 -0.11329651 53.28135681 C-0.1081891 51.89460206 -0.10297309 50.50784771 -0.09765625 49.12109375 C-0.09579201 47.71004791 -0.09436814 46.29900143 -0.09336853 44.88795471 C-0.08954379 41.16759465 -0.0797139 37.4472734 -0.06866455 33.72692871 C-0.05844948 29.93319219 -0.05387071 26.13944942 -0.04882812 22.34570312 C-0.03809158 14.89711769 -0.0210157 7.44856428 0 0 Z " fill="#8F6EB9" transform="translate(479,586)"/>
<path d="M0 0 C8.91 0 17.82 0 27 0 C27 0.33 27 0.66 27 1 C18.75 1 10.5 1 2 1 C2.020625 2.73636719 2.04125 4.47273437 2.0625 6.26171875 C2.0625 15.4623783 1.51466574 24.62882521 1 33.8125 C0.9033244 35.58396686 0.80696803 37.35545118 0.7109375 39.12695312 C0.47763154 43.41817847 0.24002993 47.70914573 0 52 C-0.33 52 -0.66 52 -1 52 C-1.02531927 45.0765867 -1.04285389 38.15318531 -1.05493164 31.22973633 C-1.05996575 28.873612 -1.06679346 26.5174908 -1.07543945 24.16137695 C-1.0875453 20.7781497 -1.09323749 17.39496368 -1.09765625 14.01171875 C-1.10281754 12.95538742 -1.10797882 11.89905609 -1.11329651 10.81071472 C-1.11337204 9.82992447 -1.11344757 8.84913422 -1.11352539 7.83862305 C-1.115746 6.97480515 -1.11796661 6.11098724 -1.12025452 5.22099304 C-1 3 -1 3 0 0 Z " fill="#C14B8F" transform="translate(479,703)"/>
<path d="M0 0 C-12.18663702 8.28090436 -24.42222509 14.59810041 -38.375 19.375 C-39.46216309 19.75144653 -39.46216309 19.75144653 -40.57128906 20.13549805 C-45.71500182 21.81935381 -50.60682107 22.54259035 -56 23 C-53.04036929 21.02691286 -51.15275597 20.43291692 -47.75 19.625 C-44.2183988 18.71886548 -41.31718331 17.78525654 -38.25 15.8125 C-34.5231642 13.73407234 -32.2001136 13.65713358 -28 14 C-28 13.34 -28 12.68 -28 12 C-27.443125 11.75765625 -26.88625 11.5153125 -26.3125 11.265625 C-21.6938164 9.2371491 -17.17530308 7.11435967 -12.7265625 4.734375 C-11 4 -11 4 -8 4 C-8 3.34 -8 2.68 -8 2 C-7.34 2 -6.68 2 -6 2 C-6 1.34 -6 0.68 -6 0 C-3 -1 -3 -1 0 0 Z " fill="#A65DA9" transform="translate(853,776)"/>
<path d="M0 0 C-1.17240079 3.51720236 -2.12197214 4.06406565 -5.0625 6.1875 C-14.32965123 13.22936373 -20.62749708 21.34541851 -27 31 C-27.75461892 32.13320522 -28.5098037 33.26603388 -29.265625 34.3984375 C-29.83796875 35.25695312 -30.4103125 36.11546875 -31 37 C-33.4294516 33.3558226 -33.16179575 31.28758728 -33 27 C-32.34 27.33 -31.68 27.66 -31 28 C-31.33 29.32 -31.66 30.64 -32 32 C-27.96766349 29.31177566 -26.91681513 25.99542116 -24.9375 21.6875 C-24 20 -24 20 -22 19 C-21.67 18.01 -21.34 17.02 -21 16 C-20.01 16 -19.02 16 -18 16 C-17.731875 15.030625 -17.46375 14.06125 -17.1875 13.0625 C-16.795625 12.051875 -16.40375 11.04125 -16 10 C-15.01 9.67 -14.02 9.34 -13 9 C-11.97518413 8.02544758 -10.97781323 7.02170509 -10 6 C-8.66501 4.91350319 -7.30986245 3.8513912 -5.9375 2.8125 C-5.24527344 2.28269531 -4.55304687 1.75289062 -3.83984375 1.20703125 C-2 0 -2 0 0 0 Z " fill="#6075BA" transform="translate(718,550)"/>
<path d="M0 0 C4.39315147 7.32191912 3.23068788 17.14651172 3.25 25.375 C3.25167175 26.04207977 3.25334351 26.70915955 3.25506592 27.39645386 C3.25688848 39.52616895 2.91134282 51.70391151 -2 63 C-3.28082966 59.15751103 -2.51140508 57.1356621 -1.625 53.1875 C-0.21292319 46.34645215 0.43385169 39.59980003 0.75 32.625 C0.79431152 31.72289795 0.83862305 30.8207959 0.88427734 29.89135742 C1.11168152 23.83741449 0.72944703 18.00875432 0 12 C-0.21218083 9.97956702 -0.4214141 7.95881713 -0.625 5.9375 C-0.76808594 4.55884766 -0.76808594 4.55884766 -0.9140625 3.15234375 C-0.94242188 2.44207031 -0.97078125 1.73179687 -1 1 C-0.67 0.67 -0.34 0.34 0 0 Z " fill="#529ACF" transform="translate(651,567)"/>
<path d="M0 0 C0 0.66 0 1.32 0 2 C-1.5159375 3.0828125 -1.5159375 3.0828125 -3.0625 4.1875 C-4.73992462 5.44955915 -4.73992462 5.44955915 -6 7 C-6.19650383 12.50210728 -4.37587942 14.90802495 -1 19 C-0.24592899 21.30657014 0.411438 23.645752 1 26 C1.51691607 27.39728874 2.0380014 28.79303979 2.5625 30.1875 C4.44225027 35.67485179 4.71742388 41.24129355 5 47 C3.24406801 44.36610202 2.54280472 42.84621132 1.73828125 39.89453125 C1.50939209 39.08314697 1.28050293 38.2717627 1.04467773 37.43579102 C0.68224976 36.13726196 0.68224976 36.13726196 0.3125 34.8125 C-1.84597824 27.2216794 -4.42401815 20.1195374 -8.07885742 13.11450195 C-8.97265625 11.28515625 -8.97265625 11.28515625 -10 8 C-8.22949396 3.66943794 -5.00227911 0 0 0 Z " fill="#4C5DA5" transform="translate(666,521)"/>
<path d="M0 0 C0 3 0 3 -1.9375 5.0625 C-2.38996094 5.4853125 -2.84242188 5.908125 -3.30859375 6.34375 C-6.28943263 9.26263149 -8.97236927 12.45962615 -11.71875 15.59765625 C-14 18 -14 18 -16.75390625 20.14453125 C-19.26212261 21.80352465 -19.26212261 21.80352465 -19.4375 24.625 C-19.19920496 27.17899853 -19.19920496 27.17899853 -17 29 C-17.33 29.99 -17.66 30.98 -18 32 C-18.66 32 -19.32 32 -20 32 C-20.99 28.37 -21.98 24.74 -23 21 C-20.48095159 18.62308277 -17.959828 16.24843287 -15.4375 13.875 C-14.73302734 13.20984375 -14.02855469 12.5446875 -13.30273438 11.859375 C-8.96510591 7.78160446 -4.55054036 3.83895784 0 0 Z " fill="#813277" transform="translate(646,676)"/>
<path d="M0 0 C1.62603149 0.07069702 1.62603149 0.07069702 3.28491211 0.14282227 C5.03964844 0.21533203 5.03964844 0.21533203 6.82983398 0.28930664 C8.67738281 0.37341797 8.67738281 0.37341797 10.56225586 0.45922852 C11.79782227 0.51143555 13.03338867 0.56364258 14.30639648 0.61743164 C17.37107777 0.74759185 20.43547199 0.88257197 23.49975586 1.02172852 C23.49975586 1.35172852 23.49975586 1.68172852 23.49975586 2.02172852 C22.44401367 2.08118652 22.44401367 2.08118652 21.36694336 2.1418457 C2.24641817 3.27135453 -14.31153377 5.19191154 -31.50024414 14.02172852 C-29.65621474 9.44077126 -27.03190935 8.30992166 -22.71508789 6.25610352 C-17.51946908 4.26118791 -12.16564205 3.04699655 -6.74633789 1.81860352 C-3.65272146 1.05915977 -2.99249975 0.02600649 0 0 Z " fill="#529CD1" transform="translate(750.500244140625,536.978271484375)"/>
<path d="M0 0 C0.66 0.33 1.32 0.66 2 1 C-4.65957106 6.95110606 -11.28409272 12.50974078 -20 15 C-20.99 15.66 -21.98 16.32 -23 17 C-25.15625 17.37890625 -25.15625 17.37890625 -27.5 17.5625 C-30.27889602 17.78944318 -32.32255263 18.10751754 -35 19 C-36.55908654 19.36890303 -38.12193041 19.72215879 -39.6875 20.0625 C-40.89986328 20.32740234 -40.89986328 20.32740234 -42.13671875 20.59765625 C-43.05904297 20.79681641 -43.05904297 20.79681641 -44 21 C-44 20.01 -44 19.02 -44 18 C-42.86304688 17.78085937 -41.72609375 17.56171875 -40.5546875 17.3359375 C-25.27428703 14.25657932 -12.68238669 9.15175889 0 0 Z " fill="#8167B3" transform="translate(820,727)"/>
<path d="M0 0 C0.33 0 0.66 0 1 0 C1.09944869 5.81660061 1.1717413 11.63269792 1.21972656 17.44995117 C1.23974646 19.4256249 1.26697092 21.40124009 1.30175781 23.37670898 C1.35070207 26.2291515 1.37306525 29.08080549 1.390625 31.93359375 C1.41127014 32.80584091 1.43191528 33.67808807 1.45318604 34.57676697 C1.45541559 40.77705013 0.13853027 45.62297116 -3 51 C-3.66 51.66 -4.32 52.32 -5 53 C-5.66 53 -6.32 53 -7 53 C-6.70198486 52.42233887 -6.40396973 51.84467773 -6.09692383 51.24951172 C-1.09290187 40.98753569 -1.25295254 30.05463289 -0.8125 18.875 C-0.73097659 17.04161477 -0.64830412 15.20828025 -0.56445312 13.375 C-0.36303936 8.91714144 -0.17722263 4.45888311 0 0 Z " fill="#E03F7C" transform="translate(479,736)"/>
<path d="M0 0 C0.6875 1.8125 0.6875 1.8125 1 4 C-0.3125 5.75 -0.3125 5.75 -2 7 C-2.66 7 -3.32 7 -4 7 C-4.165 7.845625 -4.33 8.69125 -4.5 9.5625 C-7.46158833 16.34947327 -15.19878147 22.0827819 -22.0078125 24.80175781 C-24.20020306 25.53156173 -26.4012281 26.1851338 -28.625 26.8125 C-29.75035156 27.15571289 -29.75035156 27.15571289 -30.8984375 27.50585938 C-34.67557395 28.60082712 -37.24695251 29.18267426 -41 28 C-39.85144531 27.67128906 -38.70289063 27.34257813 -37.51953125 27.00390625 C-24.75557932 23.16920708 -12.70944919 18.42927486 -5.1484375 6.7265625 C-3.93829261 4.90722902 -2.54915512 3.53203738 -1 2 C-0.67 1.34 -0.34 0.68 0 0 Z " fill="#6879BF" transform="translate(593,619)"/>
<path d="M0 0 C0.33 0 0.66 0 1 0 C5.54317614 12.49373438 3.06823814 27.02052803 -2 39 C-2.66 39 -3.32 39 -4 39 C-4.99 41.475 -4.99 41.475 -6 44 C-6.33 43.34 -6.66 42.68 -7 42 C-6.30168837 40.13783566 -5.51485551 38.30852923 -4.6875 36.5 C0.47694558 24.33486153 0.24664803 13.03439964 0 0 Z " fill="#5B8AC8" transform="translate(597,580)"/>
<path d="M0 0 C0.66 0 1.32 0 2 0 C2.12004395 0.67353516 2.24008789 1.34707031 2.36376953 2.04101562 C4.824893 15.62697281 7.70113089 28.24231221 13 41 C13.68437509 42.99400982 14.35714472 44.99221975 15 47 C11.74431076 44.33092144 10.39519092 40.84923456 8.8125 37.0625 C8.53986328 36.44181641 8.26722656 35.82113281 7.98632812 35.18164062 C6.56195338 31.82954067 6 29.70929939 6 26 C5.34 26 4.68 26 4 26 C3.49432271 23.43850372 2.99529868 20.87600535 2.5 18.3125 C2.35691406 17.59126953 2.21382812 16.87003906 2.06640625 16.12695312 C1.34428113 12.36158641 0.8175024 8.85526187 1 5 C0.34 5 -0.32 5 -1 5 C-0.67 3.35 -0.34 1.7 0 0 Z " fill="#A25BA7" transform="translate(673,655)"/>
<path d="M0 0 C0.66 0.66 1.32 1.32 2 2 C1.29875 2.50789063 0.5975 3.01578125 -0.125 3.5390625 C-2.09536325 4.96864671 -4.062664 6.40245869 -6.02734375 7.83984375 C-7.81901203 9.14180506 -9.62086434 10.43013481 -11.44140625 11.69140625 C-16.56893243 15.29841683 -16.56893243 15.29841683 -19 21 C-19.33 20.01 -19.66 19.02 -20 18 C-21.32 18.99 -22.64 19.98 -24 21 C-24.66 20.67 -25.32 20.34 -26 20 C-18.17041656 12.48422752 -9.7896158 4.8948079 0 0 Z " fill="#4E8AC6" transform="translate(686,503)"/>
<path d="M0 0 C0.54785156 0.3609375 1.09570312 0.721875 1.66015625 1.09375 C1.00015625 1.75375 0.34015625 2.41375 -0.33984375 3.09375 C-0.85546875 2.64 -1.37109375 2.18625 -1.90234375 1.71875 C-7.98526221 -2.33652897 -13.40630043 -2.02972929 -20.47265625 -1.48828125 C-23.64638565 -0.84402283 -25.65345135 0.32100375 -28.33984375 2.09375 C-29.99353732 2.79197617 -31.65711389 3.46873605 -33.33984375 4.09375 C-31.85663317 0.86558581 -30.57556463 -0.75088851 -27.58984375 -2.71875 C-18.4078268 -6.09133796 -8.28208668 -4.84805074 0 0 Z " fill="#716EB7" transform="translate(854.33984375,724.90625)"/>
<path d="M0 0 C1.54825775 3.0965155 0.8126967 5.76614437 0 9 C-2.91820281 17.42631062 -6.85861933 25.6958723 -12 33 C-12.66 33 -13.32 33 -14 33 C-12.89003253 29.94758946 -11.57088936 27.1725505 -9.9375 24.375 C-7.94270598 21.15823308 -7.94270598 21.15823308 -7 18 C-6.38503454 16.62048288 -5.75887206 15.2459326 -5.125 13.875 C-3.08662454 9.34445016 -1.47887062 4.73910813 0 0 Z " fill="#5587C1" transform="translate(648,625)"/>
<path d="M0 0 C2.97474673 3.4876341 5.02090219 6.87687957 7 11 C10.22633762 16.99176987 14.03932625 22.47063243 18 28 C17.67 28.66 17.34 29.32 17 30 C13.14265832 26.43782881 10.4556717 22.81062748 7.9375 18.1875 C7.59460938 17.57092529 7.25171875 16.95435059 6.8984375 16.3190918 C5.92144803 14.55201318 4.96027879 12.77621505 4 11 C3.53722656 10.14664063 3.07445312 9.29328125 2.59765625 8.4140625 C1.03832104 5.42857374 0 3.41494215 0 0 Z " fill="#CB4588" transform="translate(630,715)"/>
<path d="M0 0 C6.58331926 0.4223811 12.64641171 1.60947461 19.015625 3.30078125 C23.31273868 4.30756574 27.6025928 4.71786547 32 5 C31.67 5.66 31.34 6.32 31 7 C23.57101667 6.74558276 16.51419899 5.85310425 9.3125 4.0625 C8.61769531 3.89266602 7.92289063 3.72283203 7.20703125 3.54785156 C2.25940801 2.25940801 2.25940801 2.25940801 0 0 Z " fill="#CF488E" transform="translate(716,795)"/>
<path d="M0 0 C2.0625 0.6875 2.0625 0.6875 4.125 1.375 C4.94484375 1.64699219 5.7646875 1.91898438 6.609375 2.19921875 C8.5370465 2.84492571 10.45730022 3.51275378 12.375 4.1875 C15.01966486 5.14784186 15.01966486 5.14784186 18 5 C18 5.66 18 6.32 18 7 C19.32 7.66 20.64 8.32 22 9 C18.53690981 10.21760043 16.77694761 9.80744321 13.453125 8.34765625 C12.60878906 7.98349609 11.76445313 7.61933594 10.89453125 7.24414062 C10.02183594 6.85419922 9.14914062 6.46425781 8.25 6.0625 C6.91775391 5.48338867 6.91775391 5.48338867 5.55859375 4.89257812 C3.36772604 3.93849057 1.18204402 2.97405887 -1 2 C-0.67 1.34 -0.34 0.68 0 0 Z " fill="#D44186" transform="translate(696,786)"/>
<path d="M0 0 C-20.90329099 13.91570439 -20.90329099 13.91570439 -28 13 C-25.54686979 10.54686979 -23.28167831 9.77986726 -20.0625 8.5 C-16.7458818 7.17818862 -13.97816228 5.98544152 -11 4 C-10.01 4 -9.02 4 -8 4 C-8 3.34 -8 2.68 -8 2 C-7.34 2 -6.68 2 -6 2 C-6 1.34 -6 0.68 -6 0 C-3 -1 -3 -1 0 0 Z " fill="#8D60AA" transform="translate(853,776)"/>
<path d="M0 0 C-1.16809814 3.50429442 -2.07004312 4.01909349 -5 6.125 C-10.14019748 9.97808543 -14.56026901 14.37134429 -19 19 C-19 15.24633583 -17.88579937 13.21284338 -16 10 C-15.01 9.67 -14.02 9.34 -13 9 C-11.97518413 8.02544758 -10.97781323 7.02170509 -10 6 C-8.66501 4.91350319 -7.30986245 3.8513912 -5.9375 2.8125 C-5.24527344 2.28269531 -4.55304687 1.75289062 -3.83984375 1.20703125 C-2 0 -2 0 0 0 Z " fill="#5B84C5" transform="translate(718,550)"/>
<path d="M0 0 C0.66 0 1.32 0 2 0 C2.02714434 2.7084017 2.04690846 5.41652721 2.0625 8.125 C2.07087891 8.88554688 2.07925781 9.64609375 2.08789062 10.4296875 C2.10646509 14.7389644 1.86117265 18.75516474 1 23 C0.67 23 0.34 23 0 23 C-0.19588601 19.3545658 -0.38030536 15.7086421 -0.5625 12.0625 C-0.61857422 11.02158203 -0.67464844 9.98066406 -0.73242188 8.90820312 C-0.78076172 7.91884766 -0.82910156 6.92949219 -0.87890625 5.91015625 C-0.9260376 4.99371338 -0.97316895 4.07727051 -1.02172852 3.13305664 C-1 1 -1 1 0 0 Z " fill="#D24179" transform="translate(422,720)"/>
<path d="M0 0 C0.66 0.66 1.32 1.32 2 2 C0.75314243 3.58580914 -0.49763026 5.1685404 -1.75 6.75 C-2.44609375 7.63171875 -3.1421875 8.5134375 -3.859375 9.421875 C-5.80839472 11.76923452 -7.73125314 13.96003434 -10 16 C-10.66 16 -11.32 16 -12 16 C-11.67 15.01 -11.34 14.02 -11 13 C-10.34 12.67 -9.68 12.34 -9 12 C-7.98133771 10.34467377 -6.98189187 8.67739862 -6 7 C-5.34 6.34 -4.68 5.68 -4 5 C-2.65705519 3.34106818 -1.32255312 1.67523395 0 0 Z " fill="#607BBB" transform="translate(633,657)"/>
<path d="M0 0 C0.99 0.33 1.98 0.66 3 1 C4.0712828 7.02596573 4.09945415 12.88909517 4 19 C3.34 18.67 2.68 18.34 2 18 C1.58935547 16.23413086 1.58935547 16.23413086 1.3671875 13.96484375 C1.28339844 13.15595703 1.19960938 12.34707031 1.11328125 11.51367188 C1.03464844 10.66353516 0.95601562 9.81339844 0.875 8.9375 C0.78863281 8.08349609 0.70226562 7.22949219 0.61328125 6.34960938 C0.40052772 4.23389367 0.19920047 2.11703476 0 0 Z " fill="#4F4D92" transform="translate(670,568)"/>
<path d="M0 0 C0.66 0 1.32 0 2 0 C2.33 0.99 2.66 1.98 3 3 C0.3453287 7.86024407 -3.49618579 11.82083703 -8 15 C-8.66 14.67 -9.32 14.34 -10 14 C-9.52949219 13.6596875 -9.05898438 13.319375 -8.57421875 12.96875 C-3.61671139 9.10948961 -1.76424854 6.01920088 0 0 Z " fill="#826FB7" transform="translate(862,760)"/>
<path d="M0 0 C0.33 0.66 0.66 1.32 1 2 C0.04060332 3.69036558 -0.96642853 5.35394174 -2 7 C-2.33 7.9075 -2.66 8.815 -3 9.75 C-3.33 10.4925 -3.66 11.235 -4 12 C-4.99 12.33 -5.98 12.66 -7 13 C-7.69937532 14.31647119 -8.36729133 15.65022151 -9 17 C-9.66 17.33 -10.32 17.66 -11 18 C-9.16753428 14.01287679 -6.76144225 10.41915496 -4.375 6.75 C-3.95476563 6.1003125 -3.53453125 5.450625 -3.1015625 4.78125 C-2.06954327 3.18631119 -1.03501972 1.59299331 0 0 Z " fill="#713B8A" transform="translate(656,659)"/>
<path d="M0 0 C-0.66 0 -1.32 0 -2 0 C-2 0.66 -2 1.32 -2 2 C-8.435 4.97 -8.435 4.97 -15 8 C-12.8528981 3.70579621 -12.16246628 3.18028831 -8.0625 1.1875 C-7.18722656 0.74792969 -6.31195312 0.30835938 -5.41015625 -0.14453125 C-3 -1 -3 -1 0 0 Z " fill="#5289C3" transform="translate(734,543)"/>
<path d="M0 0 C0 3 0 3 -2.25 5.5 C-4.43541108 7.48673735 -6.58854412 9.30304957 -9 11 C-9 8 -9 8 -7.5390625 6.2109375 C-6.90742187 5.60507812 -6.27578125 4.99921875 -5.625 4.375 C-4.68527344 3.45847656 -4.68527344 3.45847656 -3.7265625 2.5234375 C-2 1 -2 1 0 0 Z " fill="#71347A" transform="translate(646,676)"/>
<path d="M0 0 C0.66 0 1.32 0 2 0 C2.66 4.95 3.32 9.9 4 15 C3.34 15 2.68 15 2 15 C1.67 11.7 1.34 8.4 1 5 C0.34 5 -0.32 5 -1 5 C-0.67 3.35 -0.34 1.7 0 0 Z " fill="#855AA1" transform="translate(673,655)"/>
<path d="M0 0 C3.71656547 3.71656547 3.9466586 9.47977004 4.125 14.5625 C4.08375 15.366875 4.0425 16.17125 4 17 C1.81102745 13.71654118 1.18287663 11.20465719 0.3125 7.375 C0.04050781 6.20710937 -0.23148438 5.03921875 -0.51171875 3.8359375 C-0.75341797 2.43214844 -0.75341797 2.43214844 -1 1 C-0.67 0.67 -0.34 0.34 0 0 Z " fill="#4E539E" transform="translate(667,551)"/>
<path d="M0 0 C4.44897394 5.21603841 6.98012381 10.47424614 9 17 C8.34 17 7.68 17 7 17 C5.82592979 14.73272667 4.66060261 12.46165376 3.5 10.1875 C3.16613281 9.54490234 2.83226562 8.90230469 2.48828125 8.24023438 C0.99760916 5.30452301 0 3.33873483 0 0 Z " fill="#CE4D93" transform="translate(630,715)"/>
<path d="M0 0 C0 0.66 0 1.32 0 2 C-5.29012667 3.57578241 -10.60204011 4.84941444 -16 6 C-16 5.01 -16 4.02 -16 3 C-13.70887834 2.49750857 -11.41708499 1.99807883 -9.125 1.5 C-7.84882812 1.2215625 -6.57265625 0.943125 -5.2578125 0.65625 C-2 0 -2 0 0 0 Z " fill="#9964B1" transform="translate(792,742)"/>
<path d="M0 0 C-0.433125 0.8353125 -0.433125 0.8353125 -0.875 1.6875 C-2.0413253 4.08494645 -3.0339881 6.51596939 -4 9 C-4.33 8.01 -4.66 7.02 -5 6 C-6.32 6.99 -7.64 7.98 -9 9 C-9.66 8.67 -10.32 8.34 -11 8 C-9.54712339 6.66072279 -8.08752741 5.32873153 -6.625 4 C-5.81289063 3.2575 -5.00078125 2.515 -4.1640625 1.75 C-2 0 -2 0 0 0 Z " fill="#5A86CA" transform="translate(671,515)"/>
<path d="M0 0 C0.66 0.33 1.32 0.66 2 1 C0.88407791 3.00507927 -0.24298712 5.00396096 -1.375 7 C-2.31472656 8.670625 -2.31472656 8.670625 -3.2734375 10.375 C-3.84320312 11.24125 -4.41296875 12.1075 -5 13 C-5.66 13 -6.32 13 -7 13 C-5.35821735 8.22390502 -2.73453298 4.20617096 0 0 Z " fill="#6187C6" transform="translate(641,645)"/>
<path d="M0 0 C0.33 0.66 0.66 1.32 1 2 C6.445 1.505 6.445 1.505 12 1 C9.54473878 3.45526122 8.39370182 3.41457598 5 3.75 C3.6696875 3.89695312 3.6696875 3.89695312 2.3125 4.046875 C0 4 0 4 -2 2 C-1.34 1.34 -0.68 0.68 0 0 Z " fill="#EA3064" transform="translate(449,796)"/>
<path d="M0 0 C3.21524305 1.40844718 5.32183868 3.10344786 7.75 5.625 C8.67039062 6.57246094 8.67039062 6.57246094 9.609375 7.5390625 C10.29773438 8.26222656 10.29773438 8.26222656 11 9 C10.67 9.66 10.34 10.32 10 11 C6.40147125 8.2239921 3.08225674 5.34645017 0 2 C0 1.34 0 0.68 0 0 Z " fill="#4DACDF" transform="translate(619,512)"/>
<path d="M0 0 C2.475 0.495 2.475 0.495 5 1 C5 1.99 5 2.98 5 4 C7.64 4.33 10.28 4.66 13 5 C11.26171875 6.10546875 11.26171875 6.10546875 9 7 C6.89453125 6.42578125 6.89453125 6.42578125 4.8125 5.3125 C4.11769531 4.95800781 3.42289062 4.60351562 2.70703125 4.23828125 C1 3 1 3 0 0 Z " fill="#6272B6" transform="translate(442,530)"/>
<path d="M0 0 C6.6 0.33 13.2 0.66 20 1 C20 1.33 20 1.66 20 2 C10.595 2.495 10.595 2.495 1 3 C0.67 2.01 0.34 1.02 0 0 Z " fill="#9863AF" transform="translate(479,647)"/>
<path d="M0 0 C0.33 0 0.66 0 1 0 C0.67 2.31 0.34 4.62 0 7 C-0.66 7 -1.32 7 -2 7 C-2.66 8.65 -3.32 10.3 -4 12 C-4.33 11.34 -4.66 10.68 -5 10 C-4.00390625 7.6171875 -4.00390625 7.6171875 -2.5625 4.875 C-1.85287109 3.50988281 -1.85287109 3.50988281 -1.12890625 2.1171875 C-0.75636719 1.41851563 -0.38382813 0.71984375 0 0 Z " fill="#6287C9" transform="translate(595,612)"/>
<path d="M0 0 C0.99 0.66 1.98 1.32 3 2 C-0.22791555 4.1519437 -1.28400809 4.20086443 -5 4 C-5 3.34 -5 2.68 -5 2 C-2.6875 0.875 -2.6875 0.875 0 0 Z " fill="#8961AB" transform="translate(797,740)"/>
<path d="M0 0 C0.99 0.495 0.99 0.495 2 1 C1.67 2.32 1.34 3.64 1 5 C1.66 5 2.32 5 3 5 C2.67 6.65 2.34 8.3 2 10 C-0.4294516 6.3558226 -0.16179575 4.28758728 0 0 Z " fill="#6069B3" transform="translate(685,577)"/>
</svg>
