<?xml version="1.0" encoding="UTF-8"?>
<svg version="1.1" xmlns="http://www.w3.org/2000/svg" width="1280" height="1280">
<path d="M0 0 C3.62675625 1.4895606 5.50480955 3.51333264 8 6.5 C17.49442894 17.2449147 28.7119626 24.85349797 41 32 C41.96752197 32.57016846 41.96752197 32.57016846 42.95458984 33.15185547 C69.82652914 48.80508268 100.69825666 57.04207976 131 63 C132.13816162 63.23178955 132.13816162 63.23178955 133.29931641 63.46826172 C156.09622353 68.0544691 190.30804972 74.28226142 211 61 C211.70769531 60.45214844 212.41539062 59.90429688 213.14453125 59.33984375 C215 58 215 58 217 58 C215.66489849 67.26226672 209.12878615 74.60655163 202.140625 80.40625 C197.97649506 83.50655112 195.21696422 85 190 85 C189.67 86.65 189.34 88.3 189 90 C183.48443998 91.25353637 183.48443998 91.25353637 181.08740234 89.99902344 C178.50415103 88.76268842 177.16111249 88.9585601 174.3515625 89.390625 C172.98173218 89.58821411 172.98173218 89.58821411 171.58422852 89.78979492 C170.1194104 90.01759644 170.1194104 90.01759644 168.625 90.25 C160.28250668 91.45114258 151.96007531 92.45896221 143.5625 93.1875 C142.60359863 93.2709668 141.64469727 93.35443359 140.65673828 93.44042969 C138.43814565 93.63072311 136.21912139 93.8159753 134 94 C134 99.94 134 105.88 134 112 C139.17578125 111.95117188 139.17578125 111.95117188 144.3515625 111.90234375 C148.12039187 111.93195537 151.85173191 112.1902131 155.609375 112.4765625 C162.94982086 113.02358811 170.26554055 113.32397642 177.625 113.4375 C179.45417969 113.50614258 179.45417969 113.50614258 181.3203125 113.57617188 C189.34578302 113.67477541 194.66680544 112.31528554 201.58740234 108.19946289 C204 107 204 107 207 108 C201.59919221 118.33566354 194.82390579 125.44256598 184 130 C183.34 130 182.68 130 182 130 C181.34 131.65 180.68 133.3 180 135 C178.35 134.67 176.7 134.34 175 134 C161.31708283 134 147.64814477 135.02513252 134 136 C134 197.71 134 259.42 134 323 C143.34696717 321.70256732 143.34696717 321.70256732 148.8125 316.3125 C149.53953125 315.42433594 150.2665625 314.53617188 151.015625 313.62109375 C153.41492896 310.45193438 155.7782234 307.2968298 158 304 C158.33 304.99 158.66 305.98 159 307 C157.69791674 309.52183338 156.35340407 311.81653063 154.8125 314.1875 C154.35762207 314.89583984 153.90274414 315.60417969 153.43408203 316.33398438 C126.72907743 357.35722404 86.50900366 384.76276065 38.5625 395.3125 C-10.01913835 405.211692 -60.01346411 395.64096976 -101.671875 368.921875 C-121.32892871 355.88135406 -139.0549478 338.76813758 -151.78466797 318.89453125 C-152.90299904 317.15121081 -154.06107798 315.433558 -155.22265625 313.71875 C-177.03237592 280.43686565 -182.69046638 237.32546065 -175 198.7734375 C-170.00797032 175.55815879 -160.2387749 154.61299984 -147 135 C-163.14676032 133.17500756 -163.14676032 133.17500756 -179 135 C-179.45375 134.278125 -179.9075 133.55625 -180.375 132.8125 C-182.93780572 130.06663672 -184.36007253 129.23518147 -187.6875 127.75 C-195.51709153 124.08385448 -201.85204877 117.57451964 -206 110 C-206 109.01 -206 108.02 -206 107 C-203.66386055 107.90431205 -201.37165726 108.8011974 -199.16064453 109.98388672 C-192.66317544 113.31230291 -187.02148636 113.54486051 -179.8125 113.375 C-178.66225342 113.36210938 -177.51200684 113.34921875 -176.3269043 113.3359375 C-162.52407604 113.0988996 -148.75860674 112.07234792 -135 111 C-135 105.39 -135 99.78 -135 94 C-140.40735646 93.4264925 -145.8148619 92.85555853 -151.22314453 92.29101562 C-153.0602148 92.09848989 -154.89713251 91.90450242 -156.73388672 91.70898438 C-159.38469629 91.42707516 -162.03602271 91.1505496 -164.6875 90.875 C-165.49928711 90.78750488 -166.31107422 90.70000977 -167.14746094 90.60986328 C-176.0114811 89.67097727 -176.0114811 89.67097727 -184.8125 90.625 C-187 91 -187 91 -190 89 C-190.33 88.01 -190.66 87.02 -191 86 C-193.12031986 84.71155365 -193.12031986 84.71155365 -195.6875 83.625 C-205.03265974 79.10485891 -209.94279903 73.07640842 -215 64 C-215.73046875 61.125 -215.73046875 61.125 -216 59 C-211.72827956 59 -209.36040274 61.18308336 -205.86328125 63.4921875 C-174.882534 79.80674198 -120.59783817 62.19820198 -90 53 C-75.92883318 48.6277821 -62.26172465 43.42819987 -49 37 C-48.34064453 36.68063477 -47.68128906 36.36126953 -47.00195312 36.03222656 C-28.70731147 27.03111666 -14.15902164 14.53381927 0 0 Z M-122 94 C-122 99.61 -122 105.22 -122 111 C-121.34 111 -120.68 111 -120 111 C-120 105.72 -120 100.44 -120 95 C-120.66 94.67 -121.32 94.34 -122 94 Z M120 94 C118.58225162 95.18852855 118.58225162 95.18852855 118.90234375 98.59765625 C118.9090178 100.08596867 118.92097817 101.57426432 118.9375 103.0625 C118.94201172 103.82111328 118.94652344 104.57972656 118.95117188 105.36132812 C118.9629932 107.24091871 118.98092922 109.12046899 119 111 C119.99 111 120.98 111 122 111 C122.05418326 108.91695462 122.09287551 106.83350232 122.125 104.75 C122.14820313 103.58984375 122.17140625 102.4296875 122.1953125 101.234375 C122.0103949 98.17213954 121.60823023 96.55797249 120 94 Z M-110 95 C-110 100.28 -110 105.56 -110 111 C-104.03390434 111.87692976 -98.30301289 112.11147686 -92.27929688 112.02172852 C-91.34178589 112.01212097 -90.4042749 112.00251343 -89.43835449 111.99261475 C-86.36507104 111.95985164 -83.29194002 111.91943415 -80.21875 111.87890625 C-78.0778455 111.85458291 -75.93693549 111.83074049 -73.79602051 111.80735779 C-68.18019294 111.74473706 -62.56446383 111.67560879 -56.94873047 111.60510254 C-51.21065732 111.5342195 -45.47251475 111.46952231 -39.734375 111.40429688 C-28.48950702 111.27556852 -17.24473338 111.13996186 -6 111 C-6 106.71 -6 102.42 -6 98 C-22.82668152 97.1979168 -39.6511255 96.78332765 -56.49230957 96.43878174 C-74.33254709 96.07315837 -92.16565896 95.58452861 -110 95 Z M87.28515625 95.46484375 C76.32312596 95.97396554 65.36412245 96.28226174 54.39282227 96.50268555 C51.43431724 96.56256442 48.47596001 96.62770434 45.51757812 96.69335938 C32.34342263 96.97433734 19.17690968 97.05081382 6 97 C4.07152331 100.42366426 4.07152331 100.42366426 6 111 C39.99 111 73.98 111 109 111 C109 105.72 109 100.44 109 95 C101.74095348 94.95633932 94.53407819 95.10408142 87.28515625 95.46484375 Z M-122 135 C-122 197.04 -122 259.08 -122 323 C-121.01 323 -120.02 323 -119 323 C-119 261.29 -119 199.58 -119 136 C-119.99 135.67 -120.98 135.34 -122 135 Z M-136 136 C-156.16452698 159.17715551 -168.14747536 192.42031186 -169 223 C-169.03996094 224.23878906 -169.07992187 225.47757813 -169.12109375 226.75390625 C-169.63644766 257.76608585 -160.67642114 288.1851255 -142.8125 313.625 C-142.39629395 314.21788818 -141.98008789 314.81077637 -141.55126953 315.42163086 C-139.21394588 318.64212026 -137.25191435 320.56106424 -134 323 C-134 261.29 -134 199.58 -134 136 C-134.66 136 -135.32 136 -136 136 Z M119 136 C119 197.71 119 259.42 119 323 C119.66 323 120.32 323 121 323 C122.48722532 320.02554937 122.13355742 316.99700093 122.12025452 313.73617554 C122.12110894 312.9790095 122.12196337 312.22184346 122.12284368 311.441733 C122.12449767 308.89130744 122.11897843 306.3409469 122.11352539 303.79052734 C122.11324348 301.96759543 122.11340134 300.14466341 122.1139679 298.32173157 C122.1142557 293.36125452 122.10836169 288.40080148 122.10139394 283.44033003 C122.0951576 278.26064646 122.09455638 273.08096238 122.09336853 267.90127563 C122.09025604 258.08757237 122.08204376 248.2738802 122.07201904 238.46018183 C122.06085535 227.28985371 122.05534681 216.11952507 122.05032361 204.94919276 C122.03986109 181.96612235 122.02226323 158.9830618 122 136 C121.01 136 120.02 136 119 136 Z M-108 138 C-108.185625 142.599375 -108.37125 147.19875 -108.5625 151.9375 C-108.62381104 153.39019287 -108.68512207 154.84288574 -108.74829102 156.33959961 C-108.79139404 157.47405518 -108.83449707 158.60851074 -108.87890625 159.77734375 C-108.9260376 160.94515381 -108.97316895 162.11296387 -109.02172852 163.31616211 C-109.3143955 165.91939084 -109.3143955 165.91939084 -108 167 C-105.78144736 167.08783542 -103.56011504 167.10694609 -101.33984375 167.09765625 C-100.67537735 167.0962413 -100.01091095 167.09482635 -99.3263092 167.09336853 C-97.19666101 167.08775518 -95.06711661 167.07520054 -92.9375 167.0625 C-91.49674631 167.05748671 -90.05599097 167.05292351 -88.61523438 167.04882812 C-85.07675042 167.03863076 -81.53849187 167.0190583 -78 167 C-78 157.43 -78 147.86 -78 138 C-87.9 138 -97.8 138 -108 138 Z M-72 139 C-72.08767112 141.07262076 -72.10695873 143.14820294 -72.09765625 145.22265625 C-72.09515869 146.35711182 -72.09266113 147.49156738 -72.09008789 148.66040039 C-72.08098389 150.11309326 -72.07187988 151.56578613 -72.0625 153.0625 C-72.041875 157.661875 -72.02125 162.26125 -72 167 C-61.77 167 -51.54 167 -41 167 C-40.979375 162.400625 -40.95875 157.80125 -40.9375 153.0625 C-40.928396 151.60980713 -40.91929199 150.15711426 -40.90991211 148.66040039 C-40.90741455 147.52594482 -40.90491699 146.39148926 -40.90234375 145.22265625 C-40.89710693 144.05484619 -40.89187012 142.88703613 -40.88647461 141.68383789 C-40.69338505 139.08108449 -40.69338505 139.08108449 -42 138 C-44.13353174 137.89996711 -46.27037542 137.86918952 -48.40625 137.8671875 C-50.35724609 137.86525391 -50.35724609 137.86525391 -52.34765625 137.86328125 C-53.36883545 137.86642334 -53.36883545 137.86642334 -54.41064453 137.86962891 C-56.49128515 137.8749776 -58.57170989 137.8696832 -60.65234375 137.86328125 C-61.95300781 137.86457031 -63.25367188 137.86585938 -64.59375 137.8671875 C-65.79708984 137.86831543 -67.00042969 137.86944336 -68.24023438 137.87060547 C-70.90984482 137.68544023 -70.90984482 137.68544023 -72 139 Z M-35 139 C-35.08767112 141.07262076 -35.10695873 143.14820294 -35.09765625 145.22265625 C-35.09515869 146.35711182 -35.09266113 147.49156738 -35.09008789 148.66040039 C-35.08098389 150.11309326 -35.07187988 151.56578613 -35.0625 153.0625 C-35.041875 157.661875 -35.02125 162.26125 -35 167 C-24.77 167 -14.54 167 -4 167 C-4 157.43 -4 147.86 -4 138 C-8.25421714 137.9770868 -12.50822157 137.95716111 -16.76245117 137.94506836 C-18.21070073 137.94002899 -19.65894517 137.93319747 -21.10717773 137.92456055 C-23.18474588 137.91247753 -25.26224697 137.90676789 -27.33984375 137.90234375 C-28.59144287 137.89710693 -29.84304199 137.89187012 -31.13256836 137.88647461 C-33.89732294 137.67112965 -33.89732294 137.67112965 -35 139 Z M2 139 C1.91232888 141.07262076 1.89304127 143.14820294 1.90234375 145.22265625 C1.90484131 146.35711182 1.90733887 147.49156738 1.90991211 148.66040039 C1.91901611 150.11309326 1.92812012 151.56578613 1.9375 153.0625 C1.958125 157.661875 1.97875 162.26125 2 167 C12.23 167 22.46 167 33 167 C33.020625 162.400625 33.04125 157.80125 33.0625 153.0625 C33.071604 151.60980713 33.08070801 150.15711426 33.09008789 148.66040039 C33.09258545 147.52594482 33.09508301 146.39148926 33.09765625 145.22265625 C33.10289307 144.05484619 33.10812988 142.88703613 33.11352539 141.68383789 C33.30661495 139.08108449 33.30661495 139.08108449 32 138 C29.86646826 137.89996711 27.72962458 137.86918952 25.59375 137.8671875 C23.64275391 137.86525391 23.64275391 137.86525391 21.65234375 137.86328125 C20.63116455 137.86642334 20.63116455 137.86642334 19.58935547 137.86962891 C17.50871485 137.8749776 15.42829011 137.8696832 13.34765625 137.86328125 C12.04699219 137.86457031 10.74632812 137.86585938 9.40625 137.8671875 C8.20291016 137.86831543 6.99957031 137.86944336 5.75976562 137.87060547 C3.09015518 137.68544023 3.09015518 137.68544023 2 139 Z M40 138 C39.83270936 141.96907474 39.67211774 145.93835721 39.51782227 149.90795898 C39.46434198 151.25927079 39.40900806 152.61051052 39.35180664 153.96166992 C39.27006429 155.90002989 39.19546677 157.83868704 39.12109375 159.77734375 C39.0739624 160.94515381 39.02683105 162.11296387 38.97827148 163.31616211 C38.6856045 165.91939084 38.6856045 165.91939084 40 167 C42.29151417 167.08790975 44.58572524 167.10694038 46.87890625 167.09765625 C47.5655687 167.0962413 48.25223114 167.09482635 48.95970154 167.09336853 C51.16067801 167.08775479 53.36155409 167.07520007 55.5625 167.0625 C57.05143083 167.05748676 58.54036324 167.05292355 60.02929688 167.04882812 C63.68623075 167.03778093 67.34310558 167.02050713 71 167 C71.02465881 163.03069011 71.04284023 159.06140966 71.05493164 155.09204102 C71.05997057 153.74079614 71.06680177 152.38955674 71.07543945 151.03833008 C71.08752419 149.09979566 71.09269828 147.161222 71.09765625 145.22265625 C71.10289307 144.05484619 71.10812988 142.88703613 71.11352539 141.68383789 C71.30661495 139.08108449 71.30661495 139.08108449 70 138 C67.78144736 137.91216458 65.56011504 137.89305391 63.33984375 137.90234375 C62.67537735 137.9037587 62.01091095 137.90517365 61.3263092 137.90663147 C59.19666101 137.91224482 57.06711661 137.92479946 54.9375 137.9375 C53.49674631 137.94251329 52.05599097 137.94707649 50.61523438 137.95117188 C47.07678898 137.96221855 43.53840461 137.97949208 40 138 Z M77 138 C77 147.57 77 157.14 77 167 C86.9 167 96.8 167 107 167 C107.185625 162.58625 107.37125 158.1725 107.5625 153.625 C107.65446655 151.53792725 107.65446655 151.53792725 107.74829102 149.40869141 C107.81294556 147.7716626 107.81294556 147.7716626 107.87890625 146.1015625 C107.94960327 144.42054443 107.94960327 144.42054443 108.02172852 142.70556641 C108.19867462 140.03066905 108.19867462 140.03066905 107 138 C97.1 138 87.2 138 77 138 Z M-108 173 C-108 182.24 -108 191.48 -108 201 C-98.1 201 -88.2 201 -78 201 C-78 191.76 -78 182.52 -78 173 C-87.9 173 -97.8 173 -108 173 Z M-72 173 C-72 182.24 -72 191.48 -72 201 C-61.77 201 -51.54 201 -41 201 C-41 191.76 -41 182.52 -41 173 C-51.23 173 -61.46 173 -72 173 Z M-35 173 C-35 182.24 -35 191.48 -35 201 C-24.77 201 -14.54 201 -4 201 C-4 191.76 -4 182.52 -4 173 C-14.23 173 -24.46 173 -35 173 Z M2 173 C2 182.24 2 191.48 2 201 C12.23 201 22.46 201 33 201 C33.33 191.76 33.66 182.52 34 173 C23.44 173 12.88 173 2 173 Z M39 173 C39.33 182.24 39.66 191.48 40 201 C50.23 201 60.46 201 71 201 C71 191.76 71 182.52 71 173 C60.44 173 49.88 173 39 173 Z M77 173 C77 182.24 77 191.48 77 201 C86.9 201 96.8 201 107 201 C107 191.76 107 182.52 107 173 C97.1 173 87.2 173 77 173 Z M-108 207 C-108 216.24 -108 225.48 -108 235 C-98.1 235 -88.2 235 -78 235 C-78 225.76 -78 216.52 -78 207 C-87.9 207 -97.8 207 -108 207 Z M-72 207 C-72 216.24 -72 225.48 -72 235 C-61.77 235 -51.54 235 -41 235 C-41 225.76 -41 216.52 -41 207 C-51.23 207 -61.46 207 -72 207 Z M-35 207 C-35 216.24 -35 225.48 -35 235 C-24.77 235 -14.54 235 -4 235 C-4 225.76 -4 216.52 -4 207 C-14.23 207 -24.46 207 -35 207 Z M2 207 C2 216.24 2 225.48 2 235 C12.23 235 22.46 235 33 235 C33 225.76 33 216.52 33 207 C22.77 207 12.54 207 2 207 Z M39 207 C39.33 216.24 39.66 225.48 40 235 C50.23 235 60.46 235 71 235 C71 225.76 71 216.52 71 207 C60.44 207 49.88 207 39 207 Z M77 207 C77 216.24 77 225.48 77 235 C86.9 235 96.8 235 107 235 C107 225.76 107 216.52 107 207 C97.1 207 87.2 207 77 207 Z M-108 241 C-108 250.57 -108 260.14 -108 270 C-103.235625 270.020625 -98.47125 270.04125 -93.5625 270.0625 C-92.0576001 270.071604 -90.5527002 270.08070801 -89.00219727 270.09008789 C-87.82713623 270.09258545 -86.6520752 270.09508301 -85.44140625 270.09765625 C-84.23170166 270.10289307 -83.02199707 270.10812988 -81.77563477 270.11352539 C-79.09187983 270.31775285 -79.09187983 270.31775285 -78 269 C-77.91232888 266.92737924 -77.89304127 264.85179706 -77.90234375 262.77734375 C-77.90484131 261.64288818 -77.90733887 260.50843262 -77.90991211 259.33959961 C-77.91901611 257.88690674 -77.92812012 256.43421387 -77.9375 254.9375 C-77.9684375 248.0384375 -77.9684375 248.0384375 -78 241 C-87.9 241 -97.8 241 -108 241 Z M-72 241 C-72 250.57 -72 260.14 -72 270 C-67.74578286 270.0229132 -63.49177843 270.04283889 -59.23754883 270.05493164 C-57.78929927 270.05997101 -56.34105483 270.06680253 -54.89282227 270.07543945 C-52.81525412 270.08752247 -50.73775303 270.09323211 -48.66015625 270.09765625 C-47.40855713 270.10289307 -46.15695801 270.10812988 -44.86743164 270.11352539 C-42.10267706 270.32887035 -42.10267706 270.32887035 -41 269 C-40.91232888 266.92737924 -40.89304127 264.85179706 -40.90234375 262.77734375 C-40.90484131 261.64288818 -40.90733887 260.50843262 -40.90991211 259.33959961 C-40.91901611 257.88690674 -40.92812012 256.43421387 -40.9375 254.9375 C-40.9684375 248.0384375 -40.9684375 248.0384375 -41 241 C-51.23 241 -61.46 241 -72 241 Z M-35 241 C-35 250.57 -35 260.14 -35 270 C-30.74578286 270.0229132 -26.49177843 270.04283889 -22.23754883 270.05493164 C-20.78929927 270.05997101 -19.34105483 270.06680253 -17.89282227 270.07543945 C-15.81525412 270.08752247 -13.73775303 270.09323211 -11.66015625 270.09765625 C-10.40855713 270.10289307 -9.15695801 270.10812988 -7.86743164 270.11352539 C-5.10267706 270.32887035 -5.10267706 270.32887035 -4 269 C-3.91232888 266.92737924 -3.89304127 264.85179706 -3.90234375 262.77734375 C-3.90484131 261.64288818 -3.90733887 260.50843262 -3.90991211 259.33959961 C-3.91901611 257.88690674 -3.92812012 256.43421387 -3.9375 254.9375 C-3.9684375 248.0384375 -3.9684375 248.0384375 -4 241 C-14.23 241 -24.46 241 -35 241 Z M2 241 C2 250.57 2 260.14 2 270 C6.25421714 270.0229132 10.50822157 270.04283889 14.76245117 270.05493164 C16.21070073 270.05997101 17.65894517 270.06680253 19.10717773 270.07543945 C21.18474588 270.08752247 23.26224697 270.09323211 25.33984375 270.09765625 C26.59144287 270.10289307 27.84304199 270.10812988 29.13256836 270.11352539 C31.89732294 270.32887035 31.89732294 270.32887035 33 269 C33.08767112 266.92737924 33.10695873 264.85179706 33.09765625 262.77734375 C33.09515869 261.64288818 33.09266113 260.50843262 33.09008789 259.33959961 C33.08098389 257.88690674 33.07187988 256.43421387 33.0625 254.9375 C33.0315625 248.0384375 33.0315625 248.0384375 33 241 C22.77 241 12.54 241 2 241 Z M39 242 C38.90016942 243.98757028 38.86919247 245.9786752 38.8671875 247.96875 C38.86589844 249.17917969 38.86460937 250.38960937 38.86328125 251.63671875 C38.86714844 252.91160156 38.87101563 254.18648437 38.875 255.5 C38.87113281 256.77488281 38.86726562 258.04976562 38.86328125 259.36328125 C38.86457031 260.57371094 38.86585938 261.78414062 38.8671875 263.03125 C38.86831543 264.15080078 38.86944336 265.27035156 38.87060547 266.42382812 C38.70783632 268.93141802 38.70783632 268.93141802 40 270 C42.12180138 270.10005826 44.24693539 270.13081087 46.37109375 270.1328125 C48.31532227 270.13474609 48.31532227 270.13474609 50.29882812 270.13671875 C51.31698608 270.13357666 51.31698608 270.13357666 52.35571289 270.13037109 C54.42536789 270.1250313 56.494805 270.13031193 58.56445312 270.13671875 C59.86189453 270.13542969 61.15933594 270.13414062 62.49609375 270.1328125 C63.69419678 270.13168457 64.8922998 270.13055664 66.12670898 270.12939453 C68.94354163 270.1976135 68.94354163 270.1976135 71 269 C71 259.76 71 250.52 71 241 C66.60336967 240.97708762 62.20694512 240.95716167 57.81030273 240.94506836 C56.31355082 240.94002879 54.81680384 240.93319713 53.32006836 240.92456055 C51.17300193 240.91247841 49.02600038 240.90676809 46.87890625 240.90234375 C45.5854126 240.89710693 44.29191895 240.89187012 42.95922852 240.88647461 C40.11347596 240.66003068 40.11347596 240.66003068 39 242 Z M77 241 C77 250.57 77 260.14 77 270 C81.764375 270.020625 86.52875 270.04125 91.4375 270.0625 C92.9423999 270.071604 94.4472998 270.08070801 95.99780273 270.09008789 C97.17286377 270.09258545 98.3479248 270.09508301 99.55859375 270.09765625 C100.76829834 270.10289307 101.97800293 270.10812988 103.22436523 270.11352539 C105.90812017 270.31775285 105.90812017 270.31775285 107 269 C107.08767112 266.92737924 107.10695873 264.85179706 107.09765625 262.77734375 C107.09515869 261.64288818 107.09266113 260.50843262 107.09008789 259.33959961 C107.08098389 257.88690674 107.07187988 256.43421387 107.0625 254.9375 C107.0315625 248.0384375 107.0315625 248.0384375 107 241 C97.1 241 87.2 241 77 241 Z M-108 275 C-108 284.57 -108 294.14 -108 304 C-103.235625 304.020625 -98.47125 304.04125 -93.5625 304.0625 C-92.0576001 304.071604 -90.5527002 304.08070801 -89.00219727 304.09008789 C-87.82713623 304.09258545 -86.6520752 304.09508301 -85.44140625 304.09765625 C-84.23170166 304.10289307 -83.02199707 304.10812988 -81.77563477 304.11352539 C-79.09187983 304.31775285 -79.09187983 304.31775285 -78 303 C-77.91241997 301.00035018 -77.89303424 298.9976389 -77.90234375 296.99609375 C-77.90556641 295.78115234 -77.90878906 294.56621094 -77.91210938 293.31445312 C-77.92048828 292.03505859 -77.92886719 290.75566406 -77.9375 289.4375 C-77.94426758 287.51260742 -77.94426758 287.51260742 -77.95117188 285.54882812 C-77.96300455 282.36583978 -77.97948932 279.18294238 -78 276 C-84.53641211 275.01175674 -90.89718189 274.88161935 -97.5 274.9375 C-102.6975 274.9684375 -102.6975 274.9684375 -108 275 Z M-72 276 C-72.08767112 278.07262076 -72.10695873 280.14820294 -72.09765625 282.22265625 C-72.09443359 283.48271484 -72.09121094 284.74277344 -72.08789062 286.04101562 C-72.07953403 287.38151109 -72.07106907 288.72200588 -72.0625 290.0625 C-72.0574866 291.40689942 -72.05292342 292.7513006 -72.04882812 294.09570312 C-72.03699488 297.39717941 -72.02050971 300.69856803 -72 304 C-67.74585377 304.02465622 -63.49174502 304.04283899 -59.23754883 304.05493164 C-57.78929927 304.05997101 -56.34105483 304.06680253 -54.89282227 304.07543945 C-52.81525412 304.08752247 -50.73775303 304.09323211 -48.66015625 304.09765625 C-47.40855713 304.10289307 -46.15695801 304.10812988 -44.86743164 304.11352539 C-42.10267706 304.32887035 -42.10267706 304.32887035 -41 303 C-40.90016942 301.01242972 -40.86919247 299.0213248 -40.8671875 297.03125 C-40.86589844 295.82082031 -40.86460937 294.61039063 -40.86328125 293.36328125 C-40.86908203 291.45095703 -40.86908203 291.45095703 -40.875 289.5 C-40.87113281 288.22511719 -40.86726563 286.95023438 -40.86328125 285.63671875 C-40.86457031 284.42628906 -40.86585938 283.21585938 -40.8671875 281.96875 C-40.86831543 280.84919922 -40.86944336 279.72964844 -40.87060547 278.57617188 C-40.70783632 276.06858198 -40.70783632 276.06858198 -42 275 C-44.13353174 274.89996711 -46.27037542 274.86918952 -48.40625 274.8671875 C-50.35724609 274.86525391 -50.35724609 274.86525391 -52.34765625 274.86328125 C-53.36883545 274.86642334 -53.36883545 274.86642334 -54.41064453 274.86962891 C-56.49128515 274.8749776 -58.57170989 274.8696832 -60.65234375 274.86328125 C-61.95300781 274.86457031 -63.25367188 274.86585938 -64.59375 274.8671875 C-65.79708984 274.86831543 -67.00042969 274.86944336 -68.24023438 274.87060547 C-70.90984482 274.68544023 -70.90984482 274.68544023 -72 276 Z M-35 275 C-35 284.57 -35 294.14 -35 304 C-27.884375 304.0309375 -27.884375 304.0309375 -20.625 304.0625 C-18.38130615 304.07615601 -18.38130615 304.07615601 -16.09228516 304.09008789 C-14.91972168 304.09258545 -13.7471582 304.09508301 -12.5390625 304.09765625 C-11.33459473 304.10289307 -10.13012695 304.10812988 -8.88916016 304.11352539 C-6.0586323 304.20087891 -6.0586323 304.20087891 -4 303 C-4 294.09 -4 285.18 -4 276 C-6.87018441 274.56490779 -9.33543723 274.88841494 -12.5390625 274.90234375 C-14.29790771 274.90609009 -14.29790771 274.90609009 -16.09228516 274.90991211 C-17.58808105 274.91901611 -19.08387695 274.92812012 -20.625 274.9375 C-27.740625 274.9684375 -27.740625 274.9684375 -35 275 Z M2 275 C1.97534119 278.96930989 1.95715977 282.93859034 1.94506836 286.90795898 C1.94002943 288.25920386 1.93319823 289.61044326 1.92456055 290.96166992 C1.91247581 292.90020434 1.90730172 294.838778 1.90234375 296.77734375 C1.89710693 297.94515381 1.89187012 299.11296387 1.88647461 300.31616211 C1.69338505 302.91891551 1.69338505 302.91891551 3 304 C5.13353174 304.10003289 7.27037542 304.13081048 9.40625 304.1328125 C11.35724609 304.13474609 11.35724609 304.13474609 13.34765625 304.13671875 C14.02844238 304.13462402 14.70922852 304.1325293 15.41064453 304.13037109 C17.49128515 304.1250224 19.57170989 304.1303168 21.65234375 304.13671875 C22.95300781 304.13542969 24.25367188 304.13414062 25.59375 304.1328125 C26.79708984 304.13168457 28.00042969 304.13055664 29.24023438 304.12939453 C31.90984482 304.31455977 31.90984482 304.31455977 33 303 C33.38539776 298.51134968 33.47023406 294.0018682 33.625 289.5 C33.6765625 288.22511719 33.728125 286.95023438 33.78125 285.63671875 C33.82507813 284.42628906 33.86890625 283.21585938 33.9140625 281.96875 C33.9548291 280.84919922 33.9955957 279.72964844 34.03759766 278.57617188 C34.30019753 276.06795994 34.30019753 276.06795994 33 275 C30.70848583 274.91209025 28.41427476 274.89305962 26.12109375 274.90234375 C25.4344313 274.9037587 24.74776886 274.90517365 24.04029846 274.90663147 C21.83932199 274.91224521 19.63844591 274.92479993 17.4375 274.9375 C15.94856917 274.94251324 14.45963676 274.94707645 12.97070312 274.95117188 C9.31376925 274.96221907 5.65689442 274.97949287 2 275 Z M40 275 C40 284.57 40 294.14 40 304 C44.25421714 304.0229132 48.50822157 304.04283889 52.76245117 304.05493164 C54.21070073 304.05997101 55.65894517 304.06680253 57.10717773 304.07543945 C59.18474588 304.08752247 61.26224697 304.09323211 63.33984375 304.09765625 C64.59144287 304.10289307 65.84304199 304.10812988 67.13256836 304.11352539 C69.89732294 304.32887035 69.89732294 304.32887035 71 303 C71.09983058 301.01242972 71.13080753 299.0213248 71.1328125 297.03125 C71.13410156 295.82082031 71.13539063 294.61039063 71.13671875 293.36328125 C71.13091797 291.45095703 71.13091797 291.45095703 71.125 289.5 C71.12886719 288.22511719 71.13273437 286.95023438 71.13671875 285.63671875 C71.13542969 284.42628906 71.13414062 283.21585938 71.1328125 281.96875 C71.13168457 280.84919922 71.13055664 279.72964844 71.12939453 278.57617188 C71.29216368 276.06858198 71.29216368 276.06858198 70 275 C67.78144736 274.91216458 65.56011504 274.89305391 63.33984375 274.90234375 C62.67537735 274.9037587 62.01091095 274.90517365 61.3263092 274.90663147 C59.19666101 274.91224482 57.06711661 274.92479946 54.9375 274.9375 C53.49674631 274.94251329 52.05599097 274.94707649 50.61523438 274.95117188 C47.07675042 274.96136924 43.53849187 274.9809417 40 275 Z M77 275 C77 284.57 77 294.14 77 304 C86.9 304 96.8 304 107 304 C107.020625 299.400625 107.04125 294.80125 107.0625 290.0625 C107.071604 288.60980713 107.08070801 287.15711426 107.09008789 285.66040039 C107.09258545 284.52594482 107.09508301 283.39148926 107.09765625 282.22265625 C107.10289307 281.05484619 107.10812988 279.88703613 107.11352539 278.68383789 C107.30661495 276.08108449 107.30661495 276.08108449 106 275 C103.85441173 274.91224395 101.70595579 274.89304781 99.55859375 274.90234375 C98.38353271 274.90484131 97.20847168 274.90733887 95.99780273 274.90991211 C94.49290283 274.91901611 92.98800293 274.92812012 91.4375 274.9375 C86.673125 274.958125 81.90875 274.97875 77 275 Z M-108 310 C-108 314.29 -108 318.58 -108 323 C-98.1 323 -88.2 323 -78 323 C-78 318.71 -78 314.42 -78 310 C-87.9 310 -97.8 310 -108 310 Z M-72 310 C-72 314.29 -72 318.58 -72 323 C-61.77 323 -51.54 323 -41 323 C-41 318.71 -41 314.42 -41 310 C-51.23 310 -61.46 310 -72 310 Z M-35 310 C-35 314.29 -35 318.58 -35 323 C-24.77 323 -14.54 323 -4 323 C-4 318.71 -4 314.42 -4 310 C-14.23 310 -24.46 310 -35 310 Z M2 310 C2 314.29 2 318.58 2 323 C12.39432992 324.73238832 22.551498 324.00708453 33 323 C33 318.71 33 314.42 33 310 C22.77 310 12.54 310 2 310 Z M39 310 C39.33 314.29 39.66 318.58 40 323 C50.23 323 60.46 323 71 323 C71 318.71 71 314.42 71 310 C60.44 310 49.88 310 39 310 Z M77 310 C77 314.29 77 318.58 77 323 C83.80824106 323.94267953 90.21098511 323.97730988 97.0625 323.5625 C98.02349609 323.51029297 98.98449219 323.45808594 99.97460938 323.40429688 C102.31677604 323.2761186 104.65845041 323.13899609 107 323 C107 318.71 107 314.42 107 310 C97.1 310 87.2 310 77 310 Z M119 336 C119 337.65 119 339.3 119 341 C119.66 340.67 120.32 340.34 121 340 C121 338.68 121 337.36 121 336 C120.34 336 119.68 336 119 336 Z M-122 337 C-121.01 337.99 -120.02 338.98 -119 340 C-119 339.01 -119 338.02 -119 337 C-119.99 337 -120.98 337 -122 337 Z M-108 337 C-109.54600573 350.33712604 -109.54600573 350.33712604 -103.6875 355.875 C-95.6463586 360.83475913 -87.10581501 359.51664199 -78 359 C-78 351.74 -78 344.48 -78 337 C-87.9 337 -97.8 337 -108 337 Z M-72 337 C-72 344.26 -72 351.52 -72 359 C-68.99976462 360.00007846 -66.98563836 360.12895348 -63.8515625 360.1328125 C-62.34335937 360.13474609 -62.34335937 360.13474609 -60.8046875 360.13671875 C-59.75539063 360.13285156 -58.70609375 360.12898438 -57.625 360.125 C-56.06265625 360.13080078 -56.06265625 360.13080078 -54.46875 360.13671875 C-52.95667969 360.13478516 -52.95667969 360.13478516 -51.4140625 360.1328125 C-50.4957666 360.13168457 -49.5774707 360.13055664 -48.63134766 360.12939453 C-45.58175013 360.04437258 -45.58175013 360.04437258 -41 359 C-41 351.74 -41 344.48 -41 337 C-51.23 337 -61.46 337 -72 337 Z M-35 337 C-35 344.26 -35 351.52 -35 359 C-28.56160629 359.84322958 -28.56160629 359.84322958 -22.203125 360.1328125 C-21.38972656 360.13410156 -20.57632813 360.13539063 -19.73828125 360.13671875 C-18.91714844 360.13285156 -18.09601563 360.12898438 -17.25 360.125 C-16.41339844 360.12886719 -15.57679688 360.13273437 -14.71484375 360.13671875 C-13.50248047 360.13478516 -13.50248047 360.13478516 -12.265625 360.1328125 C-11.54149414 360.13168457 -10.81736328 360.13055664 -10.07128906 360.12939453 C-7.64971316 360.04104487 -7.64971316 360.04104487 -4 359 C-4 351.74 -4 344.48 -4 337 C-14.23 337 -24.46 337 -35 337 Z M2 337 C2 344.26 2 351.52 2 359 C17.62735731 360.9465833 17.62735731 360.9465833 33 359 C33 351.74 33 344.48 33 337 C22.77 337 12.54 337 2 337 Z M40 337 C39.67 344.26 39.34 351.52 39 359 C41.9909031 359.9969677 43.9900852 360.12893997 47.11328125 360.1328125 C48.11423828 360.13410156 49.11519531 360.13539063 50.14648438 360.13671875 C51.71366211 360.13091797 51.71366211 360.13091797 53.3125 360.125 C54.34568359 360.12886719 55.37886719 360.13273437 56.44335938 360.13671875 C57.44818359 360.13542969 58.45300781 360.13414062 59.48828125 360.1328125 C60.85786987 360.13112061 60.85786987 360.13112061 62.25512695 360.12939453 C65.56091373 360.0275549 65.56091373 360.0275549 71 359 C71 351.74 71 344.48 71 337 C60.77 337 50.54 337 40 337 Z M77 337 C77 344.26 77 351.52 77 359 C81.94368307 361.47184153 89.60971305 360.90051609 95 360 C99.49070822 358.02267239 103.51358855 355.48641145 107 352 C107 347.05 107 342.1 107 337 C97.1 337 87.2 337 77 337 Z M-84 365 C-82.71034824 366.37562854 -81.37310707 367.70766393 -80 369 C-79.34 369 -78.68 369 -78 369 C-78 367.68 -78 366.36 -78 365 C-79.98 365 -81.96 365 -84 365 Z M-72 365 C-72 367.31 -72 369.62 -72 372 C-65.77179772 375.53661738 -59.33596489 378.05287319 -52.5625 380.3125 C-51.76924316 380.57885254 -50.97598633 380.84520508 -50.15869141 381.11962891 C-45.67751769 382.5868242 -45.67751769 382.5868242 -41 383 C-41 377.06 -41 371.12 -41 365 C-51.23 365 -61.46 365 -72 365 Z M-35 365 C-35 371.27 -35 377.54 -35 384 C-29.39373248 385.86875584 -24.73360904 386.64053726 -18.9375 387.1875 C-17.61008789 387.32961914 -17.61008789 387.32961914 -16.25585938 387.47460938 C-15.39669922 387.55904297 -14.53753906 387.64347656 -13.65234375 387.73046875 C-12.87882568 387.80676514 -12.10530762 387.88306152 -11.30834961 387.96166992 C-8.52758639 388.08957074 -8.52758639 388.08957074 -4 387 C-4 379.74 -4 372.48 -4 365 C-14.23 365 -24.46 365 -35 365 Z M2 365 C2 372.59 2 380.18 2 388 C9.32929761 388.04695712 9.32929761 388.04695712 16.4375 387.37890625 C17.35144531 387.24806641 18.26539063 387.11722656 19.20703125 386.98242188 C20.12871094 386.84384766 21.05039062 386.70527344 22 386.5625 C22.95261719 386.42779297 23.90523437 386.29308594 24.88671875 386.15429688 C29.28875747 385.8674831 29.28875747 385.8674831 33 384 C33.3772222 381.01553122 33.46934023 378.00331785 33.625 375 C33.6765625 374.154375 33.728125 373.30875 33.78125 372.4375 C33.82507813 371.633125 33.86890625 370.82875 33.9140625 370 C33.9548291 369.2575 33.9955957 368.515 34.03759766 367.75 C34.20122432 365.97063919 34.20122432 365.97063919 33 365 C30.70848583 364.91209025 28.41427476 364.89305962 26.12109375 364.90234375 C25.4344313 364.9037587 24.74776886 364.90517365 24.04029846 364.90663147 C21.83932199 364.91224521 19.63844591 364.92479993 17.4375 364.9375 C15.94856917 364.94251324 14.45963676 364.94707645 12.97070312 364.95117188 C9.31373195 364.96136979 5.65697883 364.98094221 2 365 Z M40 365 C38.88766422 368.91002881 39.09916219 372.18994633 39.4375 376.25 C39.53933594 377.51328125 39.64117188 378.7765625 39.74609375 380.078125 C39.82988281 381.04234375 39.91367187 382.0065625 40 383 C47.12356121 381.77523393 53.76992687 379.89051412 60.5625 377.4375 C61.46291016 377.12103516 62.36332031 376.80457031 63.29101562 376.47851562 C67.45279351 375.2690259 67.45279351 375.2690259 71 373 C71.16666667 369.5 71.16666667 369.5 71 366 C69.89732294 364.67112965 69.89732294 364.67112965 67.13256836 364.88647461 C65.88096924 364.89171143 64.62937012 364.89694824 63.33984375 364.90234375 C62.67537735 364.9037587 62.01091095 364.90517365 61.3263092 364.90663147 C59.19666101 364.91224482 57.06711661 364.92479946 54.9375 364.9375 C53.49674631 364.94251329 52.05599097 364.94707649 50.61523438 364.95117188 C47.07678898 364.96221855 43.53840461 364.97949208 40 365 Z M77 365 C77 366.32 77 367.64 77 369 C78.65 368.67 80.3 368.34 82 368 C82.33 367.01 82.66 366.02 83 365 C81.02 365 79.04 365 77 365 Z " fill="#020202" transform="translate(641,450)"/>
<path d="M0 0 C5.43643195 4.70205465 9.43938026 10.33284064 10.3125 17.6015625 C10.66449731 25.58750158 8.81246891 30.74345705 3.625 36.75 C-3.46782222 42.82956191 -8.50778038 44.38184175 -17.70703125 44.26953125 C-24.45010368 43.71760717 -28.32879728 40.98794635 -32.875 36.125 C-37.70637097 30.11605114 -38.53160368 24.71162171 -38.37109375 17.1015625 C-37.53908245 10.14769963 -34.53126401 4.84562054 -29.0625 0.5 C-19.69689167 -5.68549505 -9.66287298 -5.70189364 0 0 Z " fill="#FB0405" transform="translate(748,436)"/>
<path d="M0 0 C0 0.66 0 1.32 0 2 C-0.99 2.33 -1.98 2.66 -3 3 C-3.33 3.66 -3.66 4.32 -4 5 C-5.175625 5.37125 -5.175625 5.37125 -6.375 5.75 C-9.96421312 7.45914911 -10.47309441 9.39095043 -12 13 C-12.556875 13.86625 -13.11375 14.7325 -13.6875 15.625 C-15.9146809 21.3520366 -16.18560904 27.51190385 -14.19140625 33.37890625 C-11.21308859 38.80995611 -6.81560937 42.0029068 -1 44 C5.59846149 45.07729984 12.01878889 43.95500311 18 41 C23.64022367 36.48782107 26.94467035 31.18743037 27.75 24.0625 C27.84939173 22.70941719 27.93853355 21.35533527 28 20 C28.33 20 28.66 20 29 20 C29.38834303 28.08328817 29.24107833 33.32093811 23.6875 39.625 C16.64775192 45.84617272 11.52155876 47.38219994 2.29296875 47.26953125 C-4.45010368 46.71760717 -8.32879728 43.98794635 -12.875 39.125 C-17.70637097 33.11605114 -18.53160368 27.71162171 -18.37109375 20.1015625 C-17.65363057 14.10508078 -15.37159991 9.26547773 -10.9921875 5.08203125 C-4.44952494 0 -4.44952494 0 0 0 Z " fill="#CF0709" transform="translate(728,433)"/>
<path d="M0 0 C2.375 1.625 2.375 1.625 4 4 C4.61195145 7.6717087 4.48706506 9.28813568 2.375 12.375 C0 14 0 14 -3 14.5625 C-6 14 -6 14 -8.4375 11.875 C-10 9 -10 9 -9.9375 5.875 C-8.12944906 0.33031044 -5.83514388 -0.83359198 0 0 Z " fill="#C10E10" transform="translate(798,690)"/>
<path d="M0 0 C3.5 0.9375 3.5 0.9375 5.5625 3.125 C6.5 5.9375 6.5 5.9375 5.9375 9.125 C4.5 11.9375 4.5 11.9375 2.6875 13.375 C-0.14578171 14.10355815 -1.74550909 13.92629161 -4.5 12.9375 C-6.375 11.3125 -6.375 11.3125 -7.5 8.9375 C-7.375 5.3125 -7.375 5.3125 -6.5 1.9375 C-3.5 -0.0625 -3.5 -0.0625 0 0 Z " fill="#C10B0C" transform="translate(796.5,653.0625)"/>
<path d="M0 0 C2.3125 1.25 2.3125 1.25 3.3125 2.25 C3.5 5.1875 3.5 5.1875 3.3125 8.25 C1.3125 10.25 1.3125 10.25 -1.6875 10.5625 C-2.6775 10.459375 -3.6675 10.35625 -4.6875 10.25 C-6.83512184 7.02856724 -7.248568 5.9904533 -6.6875 2.25 C-4.33222347 -0.45420638 -3.50969299 -0.97944921 0 0 Z " fill="#B0151B" transform="translate(488.6875,696.75)"/>
<path d="M0 0 C2.625 0.3125 2.625 0.3125 4.5 2 C5.91364911 4.90583428 5.60670152 6.28558697 4.625 9.3125 C3.625 10.3125 3.625 10.3125 0.5625 10.375 C-0.406875 10.354375 -1.37625 10.33375 -2.375 10.3125 C-3.86606457 7.33037087 -3.49441467 4.59640342 -3.375 1.3125 C-2.375 0.3125 -2.375 0.3125 0 0 Z " fill="#EF0304" transform="translate(794.375,691.6875)"/>
<path d="M0 0 C0 0.66 0 1.32 0 2 C-0.99 2.33 -1.98 2.66 -3 3 C-3.33 3.66 -3.66 4.32 -4 5 C-5.175625 5.37125 -5.175625 5.37125 -6.375 5.75 C-9.96421312 7.45914911 -10.47309441 9.39095043 -12 13 C-12.53625 13.928125 -13.0725 14.85625 -13.625 15.8125 C-15.36986017 19.85740312 -15.7188376 23.63713511 -16 28 C-16.33 28 -16.66 28 -17 28 C-18.37785087 20.82426179 -18.32725549 15.67143964 -14.66796875 9.234375 C-11.24185977 4.64483323 -6.02811495 0 0 0 Z " fill="#DA0C0F" transform="translate(728,433)"/>
<path d="M0 0 C0.33 0 0.66 0 1 0 C1 3.96 1 7.92 1 12 C-9.89 12 -20.78 12 -32 12 C-32 11.67 -32 11.34 -32 11 C-24.93111222 10.14785221 -17.9911168 9.87253545 -10.875 9.9375 C-9.44027344 9.94426758 -9.44027344 9.94426758 -7.9765625 9.95117188 C-5.65101378 9.96279962 -3.32549793 9.98072792 -1 10 C-0.67 6.7 -0.34 3.4 0 0 Z " fill="#080808" transform="translate(749,763)"/>
<path d="M0 0 C2.625 0.25 2.625 0.25 4.5 1.4375 C5.625 3.25 5.625 3.25 5.375 5.875 C4.625 8.25 4.625 8.25 3.625 9.25 C1.62541636 9.29080783 -0.37545254 9.29254356 -2.375 9.25 C-3.74123674 6.51752652 -3.503426 4.26801098 -3.375 1.25 C-2.375 0.25 -2.375 0.25 0 0 Z " fill="#F00404" transform="translate(795.375,654.75)"/>
<path d="M0 0 C0.78375 0.04125 1.5675 0.0825 2.375 0.125 C3.5625 2.375 3.5625 2.375 4.375 5.125 C3 7.4375 3 7.4375 1.375 9.125 C-3.5 8.25 -3.5 8.25 -4.625 7.125 C-4.8125 4.6875 -4.8125 4.6875 -4.625 2.125 C-2.625 0.125 -2.625 0.125 0 0 Z " fill="#C6080C" transform="translate(819.625,644.875)"/>
<path d="M0 0 C0.66 0 1.32 0 2 0 C2.25401601 4.1238677 2.47400105 8.24885192 2.6875 12.375 C2.76033203 13.550625 2.83316406 14.72625 2.90820312 15.9375 C2.96298828 17.05898438 3.01777344 18.18046875 3.07421875 19.3359375 C3.13182373 20.37282715 3.18942871 21.4097168 3.2487793 22.47802734 C3.16668213 23.31027832 3.08458496 24.1425293 3 25 C0 27 0 27 -3.1875 26.625 C-4.115625 26.41875 -5.04375 26.2125 -6 26 C-6 25.67 -6 25.34 -6 25 C-4.02 25 -2.04 25 0 25 C0 16.75 0 8.5 0 0 Z " fill="#0E0D0D" transform="translate(674,626)"/>
<path d="M0 0 C7.93103586 -0.51167973 14.46145215 0.68473262 21 5.4609375 C22.6875 7 22.6875 7 25 10 C24.64453125 12.1875 24.64453125 12.1875 24 14 C21 10.25 21 10.25 21 8 C20.319375 7.731875 19.63875 7.46375 18.9375 7.1875 C16.84498485 6.34158962 14.78415368 5.4154585 12.75 4.4375 C8.62460236 2.63434606 4.4555724 2.29299682 0 2 C0 1.34 0 0.68 0 0 Z " fill="#D2080B" transform="translate(729,432)"/>
<path d="M0 0 C3 0.125 3 0.125 4 1.125 C4.125 4.125 4.125 4.125 4 7.125 C3 8.125 3 8.125 0 8.25 C-3 8.125 -3 8.125 -4 7.125 C-4.125 4.125 -4.125 4.125 -4 1.125 C-3 0.125 -3 0.125 0 0 Z " fill="#BE0D0E" transform="translate(818,685.875)"/>
<path d="M0 0 C1.65 0 3.3 0 5 0 C5.33 1.65 5.66 3.3 6 5 C4.34385343 5.38218767 2.67542976 5.71395102 1 6 C0 5 0 5 -0.0625 2.4375 C-0.041875 1.633125 -0.02125 0.82875 0 0 Z " fill="#F1070E" transform="translate(484,699)"/>
<path d="M0 0 C0.33 0 0.66 0 1 0 C1.09796875 0.71285156 1.1959375 1.42570312 1.296875 2.16015625 C2.25833561 8.31847723 3.53824107 12.80736161 7 18 C6.01 18 5.02 18 4 18 C0.76038189 13.51437493 -0.14260754 9.69731251 -0.0625 4.25 C-0.05347656 3.45078125 -0.04445313 2.6515625 -0.03515625 1.828125 C-0.02355469 1.22484375 -0.01195312 0.6215625 0 0 Z " fill="#DA0305" transform="translate(710,453)"/>
<path d="M0 0 C1 3 1 3 -0.6875 6.625 C-2.63475967 9.84781653 -2.63475967 9.84781653 -5.25 10.9375 C-5.8275 10.958125 -6.405 10.97875 -7 11 C-5.22054913 6.95579349 -2.60470327 3.53921513 0 0 Z " fill="#242424" transform="translate(799,754)"/>
<path d="M0 0 C3.39228531 4.27722931 4.12631248 7.26343886 4.0625 12.6875 C4.05347656 13.68136719 4.04445313 14.67523438 4.03515625 15.69921875 C4.02355469 16.45847656 4.01195312 17.21773438 4 18 C3.67 18 3.34 18 3 18 C3 15.03 3 12.06 3 9 C2.34 9 1.68 9 1 9 C0.67 6.03 0.34 3.06 0 0 Z " fill="#E30205" transform="translate(754,444)"/>
<path d="M0 0 C1.2065625 0.0309375 1.2065625 0.0309375 2.4375 0.0625 C3.0975 1.7125 3.7575 3.3625 4.4375 5.0625 C3.4475 5.5575 3.4475 5.5575 2.4375 6.0625 C2.1075 5.0725 1.7775 4.0825 1.4375 3.0625 C-0.57758358 2.32926204 -0.57758358 2.32926204 -2.5625 2.0625 C-2.5625 3.3825 -2.5625 4.7025 -2.5625 6.0625 C-3.2225 6.0625 -3.8825 6.0625 -4.5625 6.0625 C-3.48963568 0.08511307 -3.48963568 0.08511307 0 0 Z " fill="#A71418" transform="translate(819.5625,644.9375)"/>
<path d="M0 0 C3.125 0.25 3.125 0.25 5 1.75 C5.37125 2.245 5.7425 2.74 6.125 3.25 C5.795 3.91 5.465 4.57 5.125 5.25 C4.135 4.59 3.145 3.93 2.125 3.25 C-1.63198557 2.87430144 -2.62866476 3.0857765 -5.875 5.25 C-3.48114934 0.30270864 -3.48114934 0.30270864 0 0 Z " fill="#B81816" transform="translate(794.875,689.75)"/>
<path d="M0 0 C0.66 0 1.32 0 2 0 C0.54820416 5.56521739 0.54820416 5.56521739 -1.8125 7.4375 C-4.51314341 8.13195116 -6.33829573 7.7393623 -9 7 C-9 6.67 -9 6.34 -9 6 C-7.88625 5.7525 -6.7725 5.505 -5.625 5.25 C-1.95384802 4.38994661 -1.95384802 4.38994661 -0.5625 1.875 C-0.376875 1.25625 -0.19125 0.6375 0 0 Z " fill="#B5070B" transform="translate(801,659)"/>
<path d="M0 0 C0.33 0 0.66 0 1 0 C1 3.96 1 7.92 1 12 C-0.65 12 -2.3 12 -4 12 C-3.525625 11.505 -3.05125 11.01 -2.5625 10.5 C-0.37832093 7.00531349 -0.34086089 4.09033064 0 0 Z " fill="#131313" transform="translate(749,763)"/>
<path d="M0 0 C0.33 2.31 0.66 4.62 1 7 C0.01 7 -0.98 7 -2 7 C-2.33 5.02 -2.66 3.04 -3 1 C-1 0 -1 0 0 0 Z " fill="#D10D10" transform="translate(791,694)"/>
<path d="M0 0 C0.99 0.66 1.98 1.32 3 2 C2.67 3.65 2.34 5.3 2 7 C0.35 7 -1.3 7 -3 7 C-2.01 6.34 -1.02 5.68 0 5 C0.25030977 2.41619823 0.25030977 2.41619823 0 0 Z " fill="#CD151E" transform="translate(489,699)"/>
</svg>
