{
  "accessors": [
    {
      "bufferView": 2,
      "componentType": 5126,
      "count": 1423,
      "max": [
        3.8357467651367188,
        2.0684144496917725,
        1.3432862758636475
      ],
      "min": [
        -3.5309083461761475,
        -1.18032705783844,
        -1.3432862758636475
      ],
      "type": "VEC3"
    },
    {
      "bufferView": 2,
      "byteOffset": 17076,
      "componentType": 5126,
      "count": 1423,
      "max": [
        0.9997507333755493,
        0.9999775290489197,
        0.9946316480636597
      ],
      "min": [
        -0.9972126483917236,
        -0.9999950528144836,
        -0.9946316480636597
      ],
      "type": "VEC3"
    },
    {
      "bufferView": 3,
      "componentType": 5126,
      "count": 1423,
      "max": [
        0.9158121347427368,
        0.9996554851531982,
        0.9999696016311646,
        1.0
      ],
      "min": [
        -0.9998174905776978,
        -0.9997849464416504,
        -0.9999794960021973,
        1.0
      ],
      "type": "VEC4"
    },
    {
      "bufferView": 1,
      "componentType": 5126,
      "count": 1423,
      "max": [
        0.9909700751304626,
        0.9853203296661377
      ],
      "min": [
        0.1582387089729309,
        0.004890900105237961
      ],
      "type": "VEC2"
    },
    {
      "bufferView": 0,
      "componentType": 5125,
      "count": 6810,
      "type": "SCALAR"
    },
    {
      "bufferView": 2,
      "byteOffset": 34152,
      "componentType": 5126,
      "count": 64,
      "max": [
        -2.455657958984375,
        -0.30114802718162537,
        0.60392826795578
      ],
      "min": [
        -3.2863075733184814,
        -0.7636100053787231,
        -0.5253608226776123
      ],
      "type": "VEC3"
    },
    {
      "bufferView": 2,
      "byteOffset": 34920,
      "componentType": 5126,
      "count": 64,
      "max": [
        -0.16190233826637268,
        0.5131985545158386,
        0.8863006830215454
      ],
      "min": [
        -0.8925836682319641,
        0.036371443420648575,
        -0.9823748469352722
      ],
      "type": "VEC3"
    },
    {
      "bufferView": 1,
      "byteOffset": 11384,
      "componentType": 5126,
      "count": 64,
      "max": [
        0.08490201830863953,
        0.0583777129650116
      ],
      "min": [
        0.020719140768051147,
        0.028983652591705322
      ],
      "type": "VEC2"
    },
    {
      "bufferView": 1,
      "byteOffset": 11896,
      "componentType": 5126,
      "count": 64,
      "max": [
        0.08490201830863953,
        0.0583777129650116
      ],
      "min": [
        0.020719140768051147,
        0.028983652591705322
      ],
      "type": "VEC2"
    },
    {
      "bufferView": 0,
      "byteOffset": 27240,
      "componentType": 5125,
      "count": 96,
      "type": "SCALAR"
    }
  ],
  "asset": {
    "extras": {
      "author": "Kaine_G (https://sketchfab.com/Kaine_G)",
      "license": "CC-BY-4.0 (http://creativecommons.org/licenses/by/4.0/)",
      "source": "https://sketchfab.com/3d-models/blahaj-ce981de49111488c81ea646067abe1ec",
      "title": "Blahaj"
    },
    "generator": "Sketchfab-15.18.0",
    "version": "2.0"
  },
  "bufferViews": [
    {
      "buffer": 0,
      "byteLength": 27624,
      "name": "floatBufferViews",
      "target": 34963
    },
    {
      "buffer": 0,
      "byteLength": 12408,
      "byteOffset": 27624,
      "byteStride": 8,
      "name": "floatBufferViews",
      "target": 34962
    },
    {
      "buffer": 0,
      "byteLength": 35688,
      "byteOffset": 40032,
      "byteStride": 12,
      "name": "floatBufferViews",
      "target": 34962
    },
    {
      "buffer": 0,
      "byteLength": 22768,
      "byteOffset": 75720,
      "byteStride": 16,
      "name": "floatBufferViews",
      "target": 34962
    }
  ],
  "buffers": [
    {
      "byteLength": 98488,
      "uri": "scene.bin"
    }
  ],
  "images": [
    {
      "uri": "textures/Shark_baseColor.png"
    },
    {
      "uri": "textures/Shark_metallicRoughness.png"
    },
    {
      "uri": "textures/Shark_normal.png"
    },
    {
      "uri": "textures/teef_baseColor.png"
    },
    {
      "uri": "textures/teef_metallicRoughness.png"
    }
  ],
  "materials": [
    {
      "doubleSided": true,
      "name": "Shark",
      "normalTexture": {
        "index": 2
      },
      "pbrMetallicRoughness": {
        "baseColorTexture": {
          "index": 0
        },
        "metallicRoughnessTexture": {
          "index": 1
        }
      }
    },
    {
      "alphaMode": "BLEND",
      "doubleSided": true,
      "name": "teef",
      "pbrMetallicRoughness": {
        "baseColorTexture": {
          "index": 3
        },
        "metallicFactor": 0.0,
        "metallicRoughnessTexture": {
          "index": 4
        }
      }
    }
  ],
  "meshes": [
    {
      "name": "Low_poly_blahaj1_Shark_0",
      "primitives": [
        {
          "attributes": {
            "NORMAL": 1,
            "POSITION": 0,
            "TANGENT": 2,
            "TEXCOORD_0": 3
          },
          "indices": 4,
          "material": 0,
          "mode": 4
        }
      ]
    },
    {
      "name": "Low_poly_blahaj1_teef_0",
      "primitives": [
        {
          "attributes": {
            "NORMAL": 6,
            "POSITION": 5,
            "TEXCOORD_0": 7,
            "TEXCOORD_1": 8
          },
          "indices": 9,
          "material": 1,
          "mode": 4
        }
      ]
    }
  ],
  "nodes": [
    {
      "children": [
        1
      ],
      "matrix": [
        1.0,
        0.0,
        0.0,
        0.0,
        0.0,
        2.220446049250313e-16,
        -1.0,
        0.0,
        0.0,
        1.0,
        2.220446049250313e-16,
        0.0,
        0.0,
        0.0,
        0.0,
        1.0
      ],
      "name": "Sketchfab_model"
    },
    {
      "children": [
        2
      ],
      "matrix": [
        0.009999999776482582,
        0.0,
        0.0,
        0.0,
        0.0,
        0.0,
        0.009999999776482582,
        0.0,
        0.0,
        -0.009999999776482582,
        0.0,
        0.0,
        0.0,
        0.0,
        0.0,
        1.0
      ],
      "name": "3733265eba09420ba6822b688bd1f699.fbx"
    },
    {
      "children": [
        3
      ],
      "name": "RootNode"
    },
    {
      "children": [
        4,
        5
      ],
      "matrix": [
        0.7582543741000415,
        0.0,
        -0.6519588209067766,
        0.0,
        0.0,
        1.0,
        0.0,
        0.0,
        0.6519588209067766,
        0.0,
        0.7582543741000415,
        0.0,
        0.03684667870402336,
        0.0,
        0.0993710458278656,
        1.0
      ],
      "name": "Low_poly_blahaj1"
    },
    {
      "mesh": 0,
      "name": "Low_poly_blahaj1_Shark_0"
    },
    {
      "mesh": 1,
      "name": "Low_poly_blahaj1_teef_0"
    }
  ],
  "samplers": [
    {
      "magFilter": 9729,
      "minFilter": 9987,
      "wrapS": 10497,
      "wrapT": 10497
    }
  ],
  "scene": 0,
  "scenes": [
    {
      "name": "Sketchfab_Scene",
      "nodes": [
        0
      ]
    }
  ],
  "textures": [
    {
      "sampler": 0,
      "source": 0
    },
    {
      "sampler": 0,
      "source": 1
    },
    {
      "sampler": 0,
      "source": 2
    },
    {
      "sampler": 0,
      "source": 3
    },
    {
      "sampler": 0,
      "source": 4
    }
  ]
}
